<svg xmlns="http://www.w3.org/2000/svg" x="0px" y="0px"
width="100" height="100"
viewBox="0 0 172 172"
style=" fill:#000000;"><g fill="none" fill-rule="nonzero" stroke="none" stroke-width="1" stroke-linecap="butt" stroke-linejoin="miter" stroke-miterlimit="10" stroke-dasharray="" stroke-dashoffset="0" font-family="none" font-weight="none" font-size="none" text-anchor="none" style="mix-blend-mode: normal"><path d="M0,172v-172h172v172z" fill="none"></path><g><path d="M150.04248,95.54772c0.516,-1.05952 0.97352,-2.17408 1.36912,-3.34196c4.52876,-13.3644 -2.32028,-29.37416 -16.74076,-33.239c-1.55832,-19.57876 -15.31832,-33.01196 -30.85852,-35.303c-17.78652,-2.623 -34.08008,8.67568 -39.50152,26.6342c-6.53428,-2.31512 -12.90172,-2.03304 -18.9028,1.47404c-2.72276,1.25904 -5.21332,3.11664 -7.4476,5.56076c-3.28004,3.58792 -5.41284,8.11668 -6.28144,12.8914c-1.28656,0.20296 -2.55076,0.40592 -3.74272,0.83248c-6.9488,2.49228 -11.33308,7.62132 -12.53536,15.34756c-0.7482,4.81084 0.76196,9.60964 1.60476,11.54808c3.3282,7.6626 11.04584,12.0056 18.88732,10.85664c0.39044,-0.05676 0.95804,0.11868 1.29344,0.40076c0.41452,12.2464 6.36056,23.07724 15.28048,29.26408c14.31212,9.92784 32.72644,6.86968 44.34332,-6.74412c4.97768,5.0912 10.90136,7.56456 17.86048,6.66672c6.91956,-0.89268 12.29284,-4.71108 16.21272,-10.92028c1.81116,0.48676 3.52772,1.18852 5.30276,1.38288c6.95224,0.76024 12.55084,-2.03648 16.73904,-8.256c0.14276,-0.21328 0.34916,-0.37668 0.52632,-0.56416c0.59856,-1.37256 1.19712,-2.74512 1.79568,-4.11768c0.2666,-2.08292 0.73788,-4.16756 0.76196,-6.24704c0.06708,-5.60032 -2.22224,-10.70528 -5.96668,-14.12636z" fill="#f1c40f"></path><path d="M116.39928,62.64756c0,0 -20.10852,0 -20.23064,0c-4.644,0 -8.40736,-3.76508 -8.40736,-8.40908c0,-4.0506 2.86552,-7.43212 6.68048,-8.22848c-0.04472,-0.35432 -0.07396,-0.7138 -0.07396,-1.08016c0,-4.80912 3.89924,-8.70836 8.70836,-8.70836c2.83972,0 5.35436,1.36568 6.94364,3.46924c0.40592,-5.35436 5.18924,-9.48408 10.7844,-8.79952c4.09188,0.50052 7.47512,3.6636 8.22848,7.71592c0.2408,1.30032 0.21672,2.56108 -0.02408,3.74444c1.09736,-1.18164 2.65912,-1.92468 4.39804,-1.92468c3.182,0 5.78092,2.47852 5.9856,5.60892c1.4448,-0.31992 3.01688,-0.29928 4.67324,0.32336c3.1648,1.18852 5.418,4.16756 5.55044,7.54564c0.18748,4.79708 -3.6464,8.7462 -8.4022,8.7462c-0.3612,0 -1.63056,0 -1.92296,0h-17.45972" fill="#fdfcef"></path><path d="M96.16864,63.50756h20.23064c0.47472,0 0.86,-0.38528 0.86,-0.86c0,-0.47472 -0.38528,-0.86 -0.86,-0.86h-20.23064c-4.1624,0 -7.54908,-3.38668 -7.54908,-7.54908c0,-3.55352 2.52152,-6.66156 5.99592,-7.3874c0.4386,-0.09116 0.73272,-0.50396 0.67768,-0.94944c-0.03956,-0.31992 -0.06708,-0.64328 -0.06708,-0.9718c0,-4.32924 3.52084,-7.84836 7.84664,-7.84836c2.47336,0 4.7558,1.14036 6.25736,3.12696c0.215,0.28552 0.58136,0.40764 0.9288,0.30616c0.34228,-0.10148 0.58824,-0.40248 0.61404,-0.75852c0.17888,-2.36844 1.33988,-4.59412 3.182,-6.10428c1.86276,-1.52736 4.22432,-2.20504 6.6392,-1.90748c3.72552,0.45752 6.80432,3.34196 7.48716,7.01932c0.21328,1.14724 0.2064,2.2962 -0.02236,3.41592c-0.07568,0.3784 0.10664,0.76024 0.45064,0.93568c0.344,0.17888 0.76196,0.1032 1.0234,-0.17888c0.989,-1.06296 2.32716,-1.64948 3.7668,-1.64948c2.69868,0 4.95016,2.11216 5.12732,4.80568c0.0172,0.25112 0.14104,0.47988 0.34228,0.62952c0.20124,0.15308 0.46096,0.2064 0.70176,0.15308c1.44652,-0.3182 2.81564,-0.22704 4.18476,0.28724c2.87068,1.07844 4.8762,3.79948 4.99316,6.77336c0.08084,2.07604 -0.66564,4.042 -2.10012,5.53496c-1.4362,1.49468 -3.36948,2.31856 -5.44208,2.31856h-19.38268c-0.47472,0 -0.86,0.38528 -0.86,0.86c0,0.47472 0.38528,0.86 0.86,0.86h19.38612c2.54388,0 4.91576,-1.01136 6.68048,-2.84488c1.763,-1.83352 2.67976,-4.24668 2.58,-6.794c-0.14276,-3.65672 -2.5972,-6.99868 -6.106,-8.3162c-1.376,-0.51772 -2.79672,-0.68456 -4.24496,-0.51428c-0.64844,-3.13384 -3.43656,-5.47304 -6.7166,-5.47304c-1.17648,0 -2.32888,0.3096 -3.34368,0.8772c0,-0.66392 -0.0602,-1.32784 -0.18232,-1.99348c-0.82044,-4.40664 -4.50812,-7.86556 -8.9698,-8.41252c-2.88788,-0.3526 -5.7104,0.45752 -7.93952,2.28416c-1.72516,1.41556 -2.95152,3.35572 -3.50536,5.49196c-1.74064,-1.57552 -3.98868,-2.45272 -6.38808,-2.45272c-5.27524,0 -9.56664,4.29312 -9.56664,9.56836c0,0.14276 0.00344,0.28552 0.01204,0.42656c-3.87688,1.15756 -6.61856,4.77472 -6.61856,8.88208c-0.00172,5.11356 4.15552,9.26908 9.26736,9.26908z" fill="#472b29"></path><path d="M121.27204,44.1266c3.10976,-0.20468 5.7878,1.9436 5.97872,4.79708c0.02408,0.35432 0.0086,0.70348 -0.043,1.04232c0.60028,-0.67768 1.4878,-1.13692 2.50776,-1.204c1.8662,-0.12212 3.47784,1.1094 3.71176,2.7864c0.33884,-0.09288 0.69316,-0.1548 1.05952,-0.17888c2.72104,-0.17888 5.06368,1.70108 5.23224,4.19852" fill="#fdfcef"></path><path d="M139.71732,55.99632c0.01032,0 0.02064,0 0.02924,-0.00172c0.23736,-0.01548 0.41624,-0.22016 0.40076,-0.45752c-0.18404,-2.72964 -2.73136,-4.79708 -5.68976,-4.59928c-0.23564,0.01548 -0.46956,0.04472 -0.70348,0.09116c-0.47128,-1.66496 -2.16032,-2.8294 -4.06952,-2.69524c-0.731,0.04644 -1.41556,0.27348 -2.00208,0.65704c0,-0.03268 -0.00344,-0.06364 -0.00516,-0.09632c-0.2064,-3.0874 -3.07364,-5.4352 -6.43624,-5.19612c-0.23736,0.01548 -0.41624,0.22016 -0.40076,0.45752c0.01548,0.23736 0.21328,0.4386 0.45752,0.39904c2.83972,-0.1806 5.34576,1.78364 5.5212,4.39804c0.02064,0.31648 0.00688,0.6364 -0.03956,0.95116c-0.02924,0.18748 0.07052,0.37324 0.24252,0.45408c0.172,0.08084 0.37668,0.03784 0.50396,-0.10492c0.55556,-0.6278 1.3416,-1.00448 2.21364,-1.06124c1.63572,-0.05848 3.053,0.95632 3.25768,2.41488c0.0172,0.12212 0.086,0.2322 0.1892,0.301c0.1032,0.06708 0.22876,0.08772 0.35088,0.05504c0.32164,-0.08772 0.64844,-0.14276 0.97524,-0.16684c2.4768,-0.15824 4.62164,1.54112 4.773,3.79948c0.01892,0.22704 0.20812,0.40076 0.43172,0.40076z" fill="#472b29"></path><path d="M92.76304,46.99556c2.92228,-1.37772 6.30208,-0.40248 7.54908,2.17924c0.1548,0.31992 0.27004,0.65188 0.34572,0.98728" fill="#fdfcef"></path><path d="M100.65784,50.59208c0.03096,0 0.06364,-0.00344 0.09632,-0.01032c0.23048,-0.05332 0.37668,-0.2838 0.32336,-0.516c-0.08428,-0.37324 -0.21156,-0.73616 -0.37668,-1.07844c-1.34676,-2.78812 -4.99144,-3.85108 -8.12012,-2.3822c-0.215,0.1032 -0.30788,0.35776 -0.2064,0.57276c0.10148,0.21672 0.35948,0.30272 0.57276,0.2064c2.70728,-1.27968 5.83768,-0.39044 6.97976,1.97628c0.1376,0.2838 0.24252,0.5848 0.31304,0.89612c0.04472,0.20124 0.22188,0.3354 0.41796,0.3354z" fill="#472b29"></path><path d="M27.34628,89.44h-17.2516c-0.47472,0 -0.86,-0.38528 -0.86,-0.86c0,-0.47472 0.38528,-0.86 0.86,-0.86h17.2516c0.47472,0 0.86,0.38528 0.86,0.86c0,0.47472 -0.38356,0.86 -0.86,0.86zM33.1616,88.58c0,-0.47472 -0.38528,-0.86 -0.86,-0.86h-2.48712c-0.47472,0 -0.86,0.38528 -0.86,0.86c0,0.47472 0.38528,0.86 0.86,0.86h2.48712c0.47644,0 0.86,-0.38528 0.86,-0.86zM40.1362,88.58c0,-0.47472 -0.38528,-0.86 -0.86,-0.86h-4.37912c-0.47472,0 -0.86,0.38528 -0.86,0.86c0,0.47472 0.38528,0.86 0.86,0.86h4.37912c0.47644,0 0.86,-0.38528 0.86,-0.86zM40.1362,92.02c0,-0.47472 -0.38528,-0.86 -0.86,-0.86h-16.53952c-0.47472,0 -0.86,0.38528 -0.86,0.86c0,0.47472 0.38528,0.86 0.86,0.86h16.53952c0.47644,0 0.86,-0.38528 0.86,-0.86zM20.61764,92.02c0,-0.47472 -0.38528,-0.86 -0.86,-0.86h-0.9976c-0.47472,0 -0.86,0.38528 -0.86,0.86c0,0.47472 0.38528,0.86 0.86,0.86h0.9976c0.47472,0 0.86,-0.38528 0.86,-0.86zM16.53092,92.02c0,-0.47472 -0.38528,-0.86 -0.86,-0.86h-2.50604c-0.47472,0 -0.86,0.38528 -0.86,0.86c0,0.47472 0.38528,0.86 0.86,0.86h2.50604c0.47472,0 0.86,-0.38528 0.86,-0.86zM32.24312,85.14c0,-0.47472 -0.38528,-0.86 -0.86,-0.86h-8.64644c-0.47472,0 -0.86,0.38528 -0.86,0.86c0,0.47472 0.38528,0.86 0.86,0.86h8.64644c0.47644,0 0.86,-0.38528 0.86,-0.86zM32.24312,81.7c0,-0.47472 -0.38528,-0.86 -0.86,-0.86h-2.16204c-0.47472,0 -0.86,0.38528 -0.86,0.86c0,0.47472 0.38528,0.86 0.86,0.86h2.16204c0.47644,0 0.86,-0.38528 0.86,-0.86zM26.62044,95.46c0,-0.47472 -0.38528,-0.86 -0.86,-0.86h-3.02376c-0.47472,0 -0.86,0.38528 -0.86,0.86c0,0.47472 0.38528,0.86 0.86,0.86h3.02376c0.47644,0 0.86,-0.38528 0.86,-0.86zM150.91968,110.08h-17.2516c-0.47472,0 -0.86,-0.38528 -0.86,-0.86c0,-0.47472 0.38528,-0.86 0.86,-0.86h17.25332c0.47472,0 0.86,0.38528 0.86,0.86c0,0.47472 -0.38528,0.86 -0.86172,0.86zM156.735,109.22c0,-0.47472 -0.38528,-0.86 -0.86,-0.86h-2.48712c-0.47472,0 -0.86,0.38528 -0.86,0.86c0,0.47472 0.38528,0.86 0.86,0.86h2.48712c0.47644,0 0.86,-0.38528 0.86,-0.86zM163.7096,109.22c0,-0.47472 -0.38528,-0.86 -0.86,-0.86h-4.37912c-0.47472,0 -0.86,0.38528 -0.86,0.86c0,0.47472 0.38528,0.86 0.86,0.86h4.37912c0.47472,0 0.86,-0.38528 0.86,-0.86zM160.22488,102.34c0,-0.47472 -0.38528,-0.86 -0.86,-0.86h-16.53952c-0.47472,0 -0.86,0.38528 -0.86,0.86c0,0.47472 0.38528,0.86 0.86,0.86h16.53952c0.47472,0 0.86,-0.38528 0.86,-0.86zM140.70632,102.34c0,-0.47472 -0.38528,-0.86 -0.86,-0.86h-0.9976c-0.47472,0 -0.86,0.38528 -0.86,0.86c0,0.47472 0.38528,0.86 0.86,0.86h0.9976c0.47644,0 0.86,-0.38528 0.86,-0.86zM136.61788,102.34c0,-0.47472 -0.38528,-0.86 -0.86,-0.86h-2.50432c-0.47472,0 -0.86,0.38528 -0.86,0.86c0,0.47472 0.38528,0.86 0.86,0.86h2.50432c0.47644,0 0.86,-0.38528 0.86,-0.86zM155.81652,105.78c0,-0.47472 -0.38528,-0.86 -0.86,-0.86h-8.64644c-0.47472,0 -0.86,0.38528 -0.86,0.86c0,0.47472 0.38528,0.86 0.86,0.86h8.64644c0.47472,0 0.86,-0.38528 0.86,-0.86zM155.81652,102.34c0,-0.47472 -0.38528,-0.86 -0.86,-0.86h-2.16204c-0.47472,0 -0.86,0.38528 -0.86,0.86c0,0.47472 0.38528,0.86 0.86,0.86h2.16204c0.47472,0 0.86,-0.38528 0.86,-0.86zM144.66576,105.78c0,-0.47472 -0.38528,-0.86 -0.86,-0.86h-3.02376c-0.47472,0 -0.86,0.38528 -0.86,0.86c0,0.47472 0.38528,0.86 0.86,0.86h3.02376c0.47644,0 0.86,-0.38528 0.86,-0.86z" fill="#ffffff"></path><path d="M63.94616,134.65364c3.23876,0 6.04924,0 6.0888,0c3.6292,0 6.57212,-2.87928 6.57212,-6.43108c0,-3.09944 -2.23944,-5.6846 -5.2202,-6.2952c0.0344,-0.27176 0.05848,-0.54524 0.05848,-0.8256c0,-3.67908 -3.04784,-6.66156 -6.80604,-6.66156c-2.2188,0 -4.18476,1.04404 -5.4266,2.65396c-0.3182,-4.09532 -4.05576,-7.25496 -8.428,-6.73036c-3.19748,0.38356 -5.84284,2.80188 -6.43108,5.90132c-0.1892,0.99416 -0.16856,1.95908 0.01892,2.8638c-0.85656,-0.903 -2.07776,-1.47232 -3.43656,-1.47232c-2.48712,0 -4.51844,1.89544 -4.6784,4.28968c-1.13004,-0.24424 -2.35812,-0.22876 -3.65156,0.24596c-2.47336,0.90816 -4.23464,3.18716 -4.33784,5.77232c-0.1462,3.66876 2.85004,6.68908 6.56696,6.68908c0.28208,0 1.27452,0 1.50328,0h13.64648M52.80572,134.65364h0.6192" fill="#fdfcef"></path><path d="M70.03496,135.51536h-6.0888c-0.47472,0 -0.86,-0.38528 -0.86,-0.86c0,-0.47472 0.38528,-0.86 0.86,-0.86h6.0888c3.14932,0 5.71212,-2.49916 5.71212,-5.57108c0,-2.62128 -1.90576,-4.91576 -4.53392,-5.4524c-0.44032,-0.09116 -0.73788,-0.50568 -0.68112,-0.95288c0.03096,-0.23564 0.0516,-0.473 0.0516,-0.71724c0,-3.1992 -2.66772,-5.80156 -5.94604,-5.80156c-1.87824,0 -3.60856,0.84452 -4.7472,2.32028c-0.21672,0.28208 -0.58652,0.39732 -0.92708,0.29928c-0.34056,-0.1032 -0.58308,-0.40248 -0.6106,-0.7568c-0.13588,-1.7544 -0.9718,-3.34368 -2.35468,-4.47888c-1.42588,-1.1696 -3.2422,-1.68388 -5.11356,-1.46716c-2.83112,0.33884 -5.17032,2.48024 -5.68804,5.20644c-0.16168,0.8514 -0.15652,1.7028 0.01548,2.53184c0.0774,0.37668 -0.1032,0.75852 -0.44376,0.9374c-0.33884,0.17544 -0.7568,0.10836 -1.02168,-0.172c-0.73616,-0.77572 -1.73548,-1.204 -2.8122,-1.204c-2.01068,0 -3.6894,1.53252 -3.82012,3.48644c-0.0172,0.25112 -0.14104,0.47816 -0.34056,0.62952c-0.19952,0.14964 -0.45408,0.2064 -0.69832,0.15308c-1.09908,-0.23736 -2.13796,-0.16856 -3.17512,0.215c-2.17064,0.79636 -3.68768,2.80532 -3.7754,4.9966c-0.0602,1.50672 0.48676,2.93948 1.5394,4.03512c1.0922,1.1352 2.57312,1.76128 4.16756,1.76128h15.14804c0.47472,0 0.86,0.38528 0.86,0.86c0,0.47472 -0.38528,0.86 -0.86,0.86h-15.14804c-2.0382,0 -4.00932,-0.8342 -5.40768,-2.28932c-1.38116,-1.43792 -2.09668,-3.31788 -2.01756,-5.29416c0.11524,-2.881 2.08464,-5.51088 4.90028,-6.54632c1.0492,-0.387 2.1328,-0.52288 3.2336,-0.41968c0.59168,-2.40112 2.80188,-4.16928 5.3922,-4.16928c0.84796,0 1.68044,0.19436 2.43208,0.55556c0.01548,-0.41624 0.06364,-0.83248 0.14276,-1.25044c0.65532,-3.45548 3.60512,-6.1662 7.1724,-6.59276c2.3478,-0.28724 4.6182,0.37496 6.40872,1.84212c1.28656,1.05436 2.19816,2.42348 2.65912,3.95944c1.36052,-1.11456 3.07192,-1.73204 4.88824,-1.73204c4.22776,0 7.66604,3.37464 7.66604,7.52156c0,0.05848 0,0.11696 -0.00172,0.17716c3.03408,0.9546 5.16516,3.76336 5.16516,6.94536c0.00172,4.02308 -3.33164,7.29452 -7.4304,7.29452zM53.42492,135.51536h-0.6192c-0.47472,0 -0.86,-0.38528 -0.86,-0.86c0,-0.47472 0.38528,-0.86 0.86,-0.86h0.6192c0.47472,0 0.86,0.38528 0.86,0.86c0,0.47472 -0.38528,0.86 -0.86,0.86z" fill="#472b29"></path><path d="M67.09892,125.53248c-0.03096,0 -0.06192,-0.00344 -0.0946,-0.01032c-0.2322,-0.0516 -0.3784,-0.28208 -0.32508,-0.51428c0.06364,-0.28208 0.16168,-0.559 0.2924,-0.82388c1.03888,-2.10528 3.90784,-2.88444 6.40184,-1.73204c0.215,0.09976 0.3096,0.35432 0.20984,0.56932c-0.09976,0.21672 -0.35604,0.30788 -0.57104,0.20984c-2.06572,-0.95632 -4.43244,-0.35776 -5.26836,1.33128c-0.09976,0.20296 -0.17544,0.41624 -0.2236,0.63124c-0.04644,0.20296 -0.2236,0.33884 -0.4214,0.33884zM58.22544,135.51536h-1.90404c-0.47472,0 -0.86,-0.38528 -0.86,-0.86c0,-0.47472 0.38528,-0.86 0.86,-0.86h1.90404c0.47472,0 0.86,0.38528 0.86,0.86c0,0.47472 -0.38356,0.86 -0.86,0.86z" fill="#472b29"></path><path d="M53.7672,124.356c-1.4792,0 -2.6832,-1.20228 -2.6832,-2.6832v-8.6688h9.632v8.6688c0,1.4792 -1.204,2.6832 -2.6832,2.6832z" fill="#bebacb"></path><path d="M59.512,114.208v7.4648c0,0.81528 -0.66392,1.4792 -1.4792,1.4792h-4.2656c-0.81528,0 -1.4792,-0.66392 -1.4792,-1.4792v-7.4648h7.224M61.92,111.8h-12.04v9.8728c0,2.14656 1.74064,3.8872 3.8872,3.8872h4.2656c2.14656,0 3.8872,-1.74064 3.8872,-3.8872v-9.8728z" fill="#472b29"></path><path d="M115.6872,124.356c-1.4792,0 -2.6832,-1.20228 -2.6832,-2.6832v-8.6688h9.632v8.6688c0,1.4792 -1.20228,2.6832 -2.6832,2.6832z" fill="#bebacb"></path><path d="M121.432,114.208v7.4648c0,0.81528 -0.66392,1.4792 -1.4792,1.4792h-4.2656c-0.81528,0 -1.4792,-0.66392 -1.4792,-1.4792v-7.4648h7.224M123.84,111.8h-12.04v9.8728c0,2.14656 1.74064,3.8872 3.8872,3.8872h4.2656c2.14656,0 3.8872,-1.74064 3.8872,-3.8872v-9.8728z" fill="#472b29"></path><path d="M48.51088,81.7h9.61996c1.61164,0 2.93088,-1.31924 2.93088,-2.93088v-2.73996c0,-1.61164 -1.31924,-2.93088 -2.93088,-2.93088h-9.61996c-1.61164,0 -2.93088,1.31924 -2.93088,2.93088v2.73996c0,1.61164 1.31924,2.93088 2.93088,2.93088z" fill="#f1c40f"></path><path d="M58.12912,82.904h-9.61996c-2.279,0 -4.13488,-1.85416 -4.13488,-4.13316v-2.74168c0,-2.279 1.85588,-4.13316 4.13488,-4.13316h9.61996c2.279,0 4.13488,1.85416 4.13488,4.13316v2.74168c0,2.279 -1.85416,4.13316 -4.13488,4.13316zM48.51088,74.304c-0.95116,0 -1.72516,0.774 -1.72516,1.72516v2.74168c0,0.95116 0.774,1.72516 1.72516,1.72516h9.61996c0.95116,0 1.72516,-0.774 1.72516,-1.72516v-2.74168c0,-0.95116 -0.774,-1.72516 -1.72516,-1.72516z" fill="#472b29"></path><path d="M115.59088,81.7h9.61996c1.61164,0 2.93088,-1.31924 2.93088,-2.93088v-2.73996c0,-1.61164 -1.31924,-2.93088 -2.93088,-2.93088h-9.61996c-1.61164,0 -2.93088,1.31924 -2.93088,2.93088v2.73996c0,1.61164 1.31924,2.93088 2.93088,2.93088z" fill="#f1c40f"></path><path d="M125.21084,82.904h-9.62168c-2.279,0 -4.13316,-1.85416 -4.13316,-4.13316v-2.74168c0,-2.279 1.85416,-4.13316 4.13316,-4.13316h9.62168c2.279,0 4.13316,1.85416 4.13316,4.13316v2.74168c0,2.279 -1.85416,4.13316 -4.13316,4.13316zM115.58916,74.304c-0.95116,0 -1.72516,0.774 -1.72516,1.72516v2.74168c0,0.95116 0.774,1.72516 1.72516,1.72516h9.62168c0.95116,0 1.72516,-0.774 1.72516,-1.72516v-2.74168c0,-0.95116 -0.774,-1.72516 -1.72516,-1.72516z" fill="#472b29"></path><path d="M54.89036,114.036c-3.04612,0 -5.52636,-2.47852 -5.52636,-5.52636v-12.91032c0.00344,-0.03612 0.02924,-0.22532 0.03096,-0.25972c0.00516,-0.11524 -0.00516,-0.23048 -0.03096,-0.34056c0.02408,-6.60652 0.91332,-7.8346 4.10564,-12.23952c1.21776,-1.68044 2.73308,-3.77024 4.62508,-6.73036c1.62884,-2.5456 2.24632,-5.7792 2.84488,-8.90788c1.29344,-6.7596 2.40972,-12.59556 12.35476,-12.59556h28.853c9.94332,0 11.06132,5.83768 12.35304,12.59556c0.59856,3.12696 1.21776,6.36056 2.84488,8.90788c1.892,2.96012 3.4056,5.04992 4.62336,6.72864c3.19576,4.41008 4.085,5.63472 4.10736,12.26188c-0.0258,0.10148 -0.03612,0.2064 -0.03096,0.31304c0.00172,0.03612 0.02064,0.22016 0.0258,0.25628l0.00516,12.92236c0,3.04612 -2.47852,5.52636 -5.52636,5.52636h-65.65928z" fill="#f1c40f"></path><path d="M102.14564,55.728c8.94916,0 9.8814,4.87276 11.1714,11.6186c0.6192,3.23876 1.26076,6.5876 3.01344,9.32928c1.91092,2.98936 3.43656,5.09464 4.66464,6.78884c3.14416,4.33784 3.84936,5.31136 3.87688,11.42252c-0.02752,0.16684 -0.03784,0.33712 -0.02924,0.5074c0.00516,0.10148 0.01548,0.20124 0.02924,0.31304v12.80368c0,2.38392 -1.93844,4.32236 -4.32236,4.32236h-65.65928c-2.38392,0 -4.32236,-1.93844 -4.32236,-4.32236v-12.80196c0.01376,-0.1032 0.02408,-0.2064 0.02924,-0.31304c0.0086,-0.16512 -0.00172,-0.33024 -0.02924,-0.49192c0.0258,-6.12492 0.731,-7.095 3.87688,-11.43628c1.22636,-1.69248 2.75372,-3.79948 4.66464,-6.78884c1.75268,-2.74168 2.39424,-6.09052 3.01344,-9.32928c1.29,-6.74584 2.22224,-11.6186 11.1714,-11.6186h13.64992h1.55144h13.64992M102.14564,53.32h-13.64992h-1.55144h-13.64992c-15.95472,0 -11.4294,14.577 -16.21272,22.059c-7.04168,11.01144 -8.92164,10.02932 -8.92164,19.89868l0.03268,-0.00172c-0.00516,0.11008 -0.03268,0.21328 -0.03268,0.32336v12.9086c0,3.71864 3.01344,6.73208 6.73036,6.73208h65.65928c3.71692,0 6.73036,-3.01344 6.73036,-6.73036v-12.9086c0,-0.1118 -0.02752,-0.215 -0.03268,-0.32336h0.03268c0,-9.86764 -1.87996,-8.88552 -8.91992,-19.89868c-4.78332,-7.482 -0.25972,-22.059 -16.21444,-22.059z" fill="#472b29"></path><path d="M61.43324,81.356c-1.97972,-0.78948 -4.94672,-1.97628 -5.18752,-2.75888c-0.01548,-0.04816 0.04988,-0.17028 0.11008,-0.25628c0.50568,-0.74476 1.04232,-1.54972 1.61336,-2.43724c1.634,-2.53356 2.25492,-5.74824 2.8552,-8.858c1.29688,-6.7166 2.4166,-12.51816 12.39604,-12.51816h28.93728c9.97944,0 11.09744,5.80156 12.39432,12.51816c0.60028,3.11148 1.2212,6.32616 2.8552,8.85972c0.602,0.93224 1.16616,1.77676 1.6942,2.55248c0.08772,0.12728 0.0946,0.1892 0.0946,0.1892c-0.14792,0.68112 -3.15964,1.87824 -4.95876,2.59376l-0.2924,0.11524z" fill="#ecf0f1"></path><path d="M102.15768,55.728c8.98528,0 9.91924,4.8418 11.21268,11.54292c0.62264,3.22328 1.2642,6.55492 3.02548,9.28456c0.42828,0.66564 0.83936,1.28656 1.23152,1.86964c-0.90816,0.53148 -2.61268,1.20916 -3.83216,1.6942l-0.08256,0.03268h-52.0472c-1.30548,-0.52116 -3.02032,-1.21776 -3.89236,-1.75956c0.38528,-0.57448 0.78776,-1.18508 1.20916,-1.83696c1.75956,-2.72964 2.40284,-6.06128 3.02548,-9.28456c1.29344,-6.70112 2.2274,-11.54292 11.21268,-11.54292h13.6912h1.5566h13.68948M102.15768,53.32h-13.6912h-1.5566h-13.6912c-16.00116,0 -11.4638,14.491 -16.26088,21.93c-0.56588,0.87548 -1.09736,1.67528 -1.59616,2.40972c-1.40008,2.0554 1.98488,3.36088 5.8394,4.90028h52.97256c3.85452,-1.5394 7.2842,-2.7864 5.92024,-4.78332c-0.52288,-0.76712 -1.08188,-1.60476 -1.677,-2.52668c-4.79536,-7.439 -0.258,-21.93 -16.25916,-21.93z" fill="#472b29"></path><path d="M58.48,100.276c-2.18096,0 -3.956,-1.77332 -3.956,-3.956c0,-2.18268 1.77504,-3.956 3.956,-3.956h6.88c2.18096,0 3.956,1.77332 3.956,3.956c0,2.18268 -1.77504,3.956 -3.956,3.956z" fill="#fde751"></path><path d="M65.36,93.568c1.51704,0 2.752,1.23496 2.752,2.752c0,1.51704 -1.23496,2.752 -2.752,2.752h-6.88c-1.51704,0 -2.752,-1.23496 -2.752,-2.752c0,-1.51704 1.23496,-2.752 2.752,-2.752h6.88M65.36,91.16h-6.88c-2.85004,0 -5.16,2.30996 -5.16,5.16c0,2.85004 2.30996,5.16 5.16,5.16h6.88c2.85004,0 5.16,-2.30996 5.16,-5.16c0,-2.85004 -2.30996,-5.16 -5.16,-5.16z" fill="#472b29"></path><g><path d="M110.08,100.276c-2.18268,0 -3.956,-1.77332 -3.956,-3.956c0,-2.18268 1.77332,-3.956 3.956,-3.956h6.88c2.18268,0 3.956,1.77332 3.956,3.956c0,2.18268 -1.77332,3.956 -3.956,3.956z" fill="#fde751"></path><path d="M116.96,93.568c1.51704,0 2.752,1.23496 2.752,2.752c0,1.51704 -1.23496,2.752 -2.752,2.752h-6.88c-1.51704,0 -2.752,-1.23496 -2.752,-2.752c0,-1.51704 1.23496,-2.752 2.752,-2.752h6.88M116.96,91.16h-6.88c-2.85004,0 -5.16,2.30996 -5.16,5.16c0,2.85004 2.30996,5.16 5.16,5.16h6.88c2.85004,0 5.16,-2.30996 5.16,-5.16c0,-2.85004 -2.30996,-5.16 -5.16,-5.16z" fill="#472b29"></path></g><g fill="#472b29"><path d="M126.42,108.36h-29.24c-0.47472,0 -0.86,-0.38528 -0.86,-0.86c0,-0.47472 0.38528,-0.86 0.86,-0.86h29.24c0.47472,0 0.86,0.38528 0.86,0.86c0,0.47472 -0.38528,0.86 -0.86,0.86z"></path></g><g fill="#472b29"><path d="M78.26,108.36h-22.36c-0.47472,0 -0.86,-0.38528 -0.86,-0.86c0,-0.47472 0.38528,-0.86 0.86,-0.86h22.36c0.47472,0 0.86,0.38528 0.86,0.86c0,0.47472 -0.38528,0.86 -0.86,0.86z"></path></g><g fill="#472b29"><path d="M76.54,77.4h-13.76c-0.47472,0 -0.86,-0.38528 -0.86,-0.86c0,-0.47472 0.38528,-0.86 0.86,-0.86h13.76c0.47472,0 0.86,0.38528 0.86,0.86c0,0.47472 -0.38528,0.86 -0.86,0.86z"></path></g><g fill="#472b29"><path d="M88.58,77.4h-6.88c-0.47472,0 -0.86,-0.38528 -0.86,-0.86c0,-0.47472 0.38528,-0.86 0.86,-0.86h6.88c0.47472,0 0.86,0.38528 0.86,0.86c0,0.47472 -0.38528,0.86 -0.86,0.86z"></path></g><g fill="#472b29"><path d="M92.02,108.36h-8.6c-0.47472,0 -0.86,-0.38528 -0.86,-0.86c0,-0.47472 0.38528,-0.86 0.86,-0.86h8.6c0.47472,0 0.86,0.38528 0.86,0.86c0,0.47472 -0.38528,0.86 -0.86,0.86z"></path></g><g fill="#472b29"><path d="M79.98,101.48c-0.47472,0 -0.86,-0.38528 -0.86,-0.86v-6.88c0,-0.47472 0.38528,-0.86 0.86,-0.86c0.47472,0 0.86,0.38528 0.86,0.86v6.88c0,0.47472 -0.38528,0.86 -0.86,0.86z"></path></g><g fill="#472b29"><path d="M74.82,101.48c-0.47472,0 -0.86,-0.38528 -0.86,-0.86v-6.88c0,-0.47472 0.38528,-0.86 0.86,-0.86c0.47472,0 0.86,0.38528 0.86,0.86v6.88c0,0.47472 -0.38528,0.86 -0.86,0.86z"></path></g><g fill="#472b29"><path d="M85.14,101.48c-0.47472,0 -0.86,-0.38528 -0.86,-0.86v-6.88c0,-0.47472 0.38528,-0.86 0.86,-0.86c0.47472,0 0.86,0.38528 0.86,0.86v6.88c0,0.47472 -0.38528,0.86 -0.86,0.86z"></path></g><g fill="#472b29"><path d="M90.3,101.48c-0.47472,0 -0.86,-0.38528 -0.86,-0.86v-6.88c0,-0.47472 0.38528,-0.86 0.86,-0.86c0.47472,0 0.86,0.38528 0.86,0.86v6.88c0,0.47472 -0.38528,0.86 -0.86,0.86z"></path></g><g fill="#472b29"><path d="M95.46,101.48c-0.47472,0 -0.86,-0.38528 -0.86,-0.86v-6.88c0,-0.47472 0.38528,-0.86 0.86,-0.86c0.47472,0 0.86,0.38528 0.86,0.86v6.88c0,0.47472 -0.38528,0.86 -0.86,0.86z"></path></g><g fill="#472b29"><path d="M100.62,101.48c-0.47472,0 -0.86,-0.38528 -0.86,-0.86v-6.88c0,-0.47472 0.38528,-0.86 0.86,-0.86c0.47472,0 0.86,0.38528 0.86,0.86v6.88c0,0.47472 -0.38528,0.86 -0.86,0.86z"></path></g><g fill="#472b29"><path d="M112.2558,81.63636h-2.408c0,-4.49952 -3.66016,-8.15968 -8.15968,-8.15968c-4.49952,0 -8.15968,3.66016 -8.15968,8.15968h-2.408c0,-5.82736 4.74204,-10.5694 10.5694,-10.5694c5.82736,0 10.56596,4.74204 10.56596,10.5694z"></path></g><g><path d="M89.63092,64.5h-5.54356c-1.31408,0 -2.38908,-1.075 -2.38908,-2.38908v-0.38356c0,-1.31408 1.075,-2.38908 2.38908,-2.38908h5.54356c1.31408,0 2.38908,1.075 2.38908,2.38908v0.38356c0,1.31408 -1.075,2.38908 -2.38908,2.38908z" fill="#f1c40f"></path><path d="M89.63092,65.704h-5.54356c-1.98144,0 -3.59308,-1.61336 -3.59308,-3.59308v-0.38356c0,-1.97972 1.61164,-3.59308 3.59308,-3.59308h5.54356c1.97972,0 3.59308,1.61336 3.59308,3.59308v0.38356c0,1.98144 -1.61164,3.59308 -3.59308,3.59308zM84.08908,60.544c-0.6536,0 -1.18336,0.53148 -1.18336,1.18336v0.38356c0,0.6536 0.53148,1.18336 1.18336,1.18336h5.54356c0.6536,0 1.18336,-0.53148 1.18336,-1.18336v-0.38356c0,-0.6536 -0.53148,-1.18336 -1.18336,-1.18336z" fill="#472b29"></path></g></g></g></svg>
