<svg xmlns="http://www.w3.org/2000/svg" x="0px" y="0px"
width="100" height="100"
viewBox="0 0 172 172"
style=" fill:#000000;"><g fill="none" fill-rule="nonzero" stroke="none" stroke-width="1" stroke-linecap="butt" stroke-linejoin="miter" stroke-miterlimit="10" stroke-dasharray="" stroke-dashoffset="0" font-family="none" font-weight="none" font-size="none" text-anchor="none" style="mix-blend-mode: normal"><path d="M0,172v-172h172v172z" fill="none"></path><g><path d="M150.04248,95.54772c0.516,-1.05952 0.97352,-2.17408 1.36912,-3.34196c4.52876,-13.3644 -2.32028,-29.37416 -16.74076,-33.239c-1.55832,-19.57876 -15.31832,-33.01196 -30.85852,-35.303c-17.78652,-2.623 -34.08008,8.67568 -39.50152,26.6342c-6.53428,-2.31512 -12.90172,-2.03304 -18.9028,1.47404c-2.72276,1.25904 -5.21332,3.11664 -7.4476,5.56076c-3.28004,3.58792 -5.41284,8.11668 -6.28144,12.8914c-1.28656,0.20296 -2.55076,0.40592 -3.74272,0.83248c-6.9488,2.49228 -11.33308,7.62132 -12.53536,15.34756c-0.7482,4.81084 0.76196,9.60964 1.60476,11.54808c3.3282,7.6626 11.04584,12.0056 18.88732,10.85664c0.39044,-0.05676 0.95804,0.11868 1.29344,0.40076c0.41452,12.2464 6.36056,23.07724 15.28048,29.26408c14.31212,9.92784 32.72644,6.86968 44.34332,-6.74412c4.97768,5.0912 10.90136,7.56456 17.86048,6.66672c6.91956,-0.89268 12.29284,-4.71108 16.21272,-10.92028c1.81116,0.48676 3.52772,1.18852 5.30276,1.38288c6.95224,0.76024 12.55084,-2.03648 16.73904,-8.256c0.14276,-0.21328 0.34916,-0.37668 0.52632,-0.56416c0.59856,-1.37256 1.19712,-2.74512 1.79568,-4.11768c0.2666,-2.08292 0.73788,-4.16756 0.76196,-6.24704c0.06708,-5.60032 -2.22224,-10.70528 -5.96668,-14.12636z" fill="#f1c40f"></path><path d="M34.22628,84.28h-17.2516c-0.47472,0 -0.86,-0.38528 -0.86,-0.86c0,-0.47472 0.38528,-0.86 0.86,-0.86h17.2516c0.47472,0 0.86,0.38528 0.86,0.86c0,0.47472 -0.38356,0.86 -0.86,0.86zM40.0416,83.42c0,-0.47472 -0.38528,-0.86 -0.86,-0.86h-2.48712c-0.47472,0 -0.86,0.38528 -0.86,0.86c0,0.47472 0.38528,0.86 0.86,0.86h2.48712c0.47644,0 0.86,-0.38528 0.86,-0.86zM47.0162,83.42c0,-0.47472 -0.38528,-0.86 -0.86,-0.86h-4.37912c-0.47472,0 -0.86,0.38528 -0.86,0.86c0,0.47472 0.38528,0.86 0.86,0.86h4.37912c0.47644,0 0.86,-0.38528 0.86,-0.86zM47.0162,86.86c0,-0.47472 -0.38528,-0.86 -0.86,-0.86h-16.53952c-0.47472,0 -0.86,0.38528 -0.86,0.86c0,0.47472 0.38528,0.86 0.86,0.86h16.53952c0.47644,0 0.86,-0.38528 0.86,-0.86zM27.49764,86.86c0,-0.47472 -0.38528,-0.86 -0.86,-0.86h-0.9976c-0.47472,0 -0.86,0.38528 -0.86,0.86c0,0.47472 0.38528,0.86 0.86,0.86h0.9976c0.47472,0 0.86,-0.38528 0.86,-0.86zM23.41092,86.86c0,-0.47472 -0.38528,-0.86 -0.86,-0.86h-2.50604c-0.47472,0 -0.86,0.38528 -0.86,0.86c0,0.47472 0.38528,0.86 0.86,0.86h2.50604c0.47472,0 0.86,-0.38528 0.86,-0.86zM39.12312,79.98c0,-0.47472 -0.38528,-0.86 -0.86,-0.86h-8.64644c-0.47472,0 -0.86,0.38528 -0.86,0.86c0,0.47472 0.38528,0.86 0.86,0.86h8.64644c0.47644,0 0.86,-0.38528 0.86,-0.86zM39.12312,76.54c0,-0.47472 -0.38528,-0.86 -0.86,-0.86h-2.16204c-0.47472,0 -0.86,0.38528 -0.86,0.86c0,0.47472 0.38528,0.86 0.86,0.86h2.16204c0.47644,0 0.86,-0.38528 0.86,-0.86zM33.50044,90.3c0,-0.47472 -0.38528,-0.86 -0.86,-0.86h-3.02376c-0.47472,0 -0.86,0.38528 -0.86,0.86c0,0.47472 0.38528,0.86 0.86,0.86h3.02376c0.47644,0 0.86,-0.38528 0.86,-0.86zM125.56,46.44h-17.2c-0.47472,0 -0.86,-0.38528 -0.86,-0.86c0,-0.47472 0.38528,-0.86 0.86,-0.86h17.2c0.47472,0 0.86,0.38528 0.86,0.86c0,0.47472 -0.38528,0.86 -0.86,0.86zM132.44,46.44h-3.44c-0.47472,0 -0.86,-0.38528 -0.86,-0.86c0,-0.47472 0.38528,-0.86 0.86,-0.86h3.44c0.47472,0 0.86,0.38528 0.86,0.86c0,0.47472 -0.38528,0.86 -0.86,0.86zM141.04,49.88h-17.2c-0.47472,0 -0.86,-0.38528 -0.86,-0.86c0,-0.47472 0.38528,-0.86 0.86,-0.86h17.2c0.47472,0 0.86,0.38528 0.86,0.86c0,0.47472 -0.38356,0.86 -0.86,0.86zM120.4,49.88h-1.72c-0.47472,0 -0.86,-0.38528 -0.86,-0.86c0,-0.47472 0.38528,-0.86 0.86,-0.86h1.72c0.47472,0 0.86,0.38528 0.86,0.86c0,0.47472 -0.38528,0.86 -0.86,0.86zM115.025,49.88h-3.225c-0.47472,0 -0.86,-0.38528 -0.86,-0.86c0,-0.47472 0.38528,-0.86 0.86,-0.86h3.225c0.47472,0 0.86,0.38528 0.86,0.86c0,0.47472 -0.38528,0.86 -0.86,0.86zM130.72,43h-8.6c-0.47472,0 -0.86,-0.38528 -0.86,-0.86c0,-0.47472 0.38528,-0.86 0.86,-0.86h8.6c0.47472,0 0.86,0.38528 0.86,0.86c0,0.47472 -0.38356,0.86 -0.86,0.86zM125.56,53.32h-3.44c-0.47472,0 -0.86,-0.38528 -0.86,-0.86c0,-0.47472 0.38528,-0.86 0.86,-0.86h3.44c0.47472,0 0.86,0.38528 0.86,0.86c0,0.47472 -0.38528,0.86 -0.86,0.86z" fill="#ffffff"></path><path d="M121.55928,102.20756c0,0 -20.10852,0 -20.23064,0c-4.644,0 -8.40736,-3.76508 -8.40736,-8.40908c0,-4.0506 2.86552,-7.43212 6.68048,-8.22848c-0.04472,-0.35432 -0.07396,-0.7138 -0.07396,-1.08016c0,-4.80912 3.89924,-8.70836 8.70836,-8.70836c2.83972,0 5.35436,1.36568 6.94364,3.46924c0.40592,-5.35436 5.18924,-9.48408 10.7844,-8.79952c4.09188,0.50052 7.47512,3.6636 8.22848,7.71592c0.2408,1.30032 0.21672,2.56108 -0.02408,3.74444c1.09736,-1.18164 2.65912,-1.92468 4.39804,-1.92468c3.182,0 5.78092,2.47852 5.9856,5.60892c1.4448,-0.31992 3.01688,-0.29928 4.67324,0.32336c3.1648,1.18852 5.418,4.16756 5.55044,7.54564c0.18748,4.79708 -3.6464,8.7462 -8.4022,8.7462c-0.3612,0 -1.63056,0 -1.92296,0h-17.45972" fill="#fdfcef"></path><path d="M101.32864,103.06756h20.23064c0.47472,0 0.86,-0.38528 0.86,-0.86c0,-0.47472 -0.38528,-0.86 -0.86,-0.86h-20.23064c-4.1624,0 -7.54908,-3.38668 -7.54908,-7.54908c0,-3.55352 2.52152,-6.66156 5.99592,-7.3874c0.4386,-0.09116 0.73272,-0.50396 0.67768,-0.94944c-0.03956,-0.31992 -0.06708,-0.64328 -0.06708,-0.9718c0,-4.32924 3.52084,-7.84836 7.84664,-7.84836c2.47336,0 4.7558,1.14036 6.25736,3.12696c0.215,0.28552 0.58136,0.40764 0.9288,0.30616c0.34228,-0.10148 0.58824,-0.40248 0.61404,-0.75852c0.17888,-2.36844 1.33988,-4.59412 3.182,-6.10428c1.86276,-1.52736 4.22432,-2.20504 6.6392,-1.90748c3.72552,0.45752 6.80432,3.34196 7.48716,7.01932c0.21328,1.14724 0.2064,2.2962 -0.02236,3.41592c-0.07568,0.3784 0.10664,0.76024 0.45064,0.93568c0.344,0.17888 0.76196,0.1032 1.0234,-0.17888c0.989,-1.06296 2.32716,-1.64948 3.7668,-1.64948c2.69868,0 4.95016,2.11216 5.12732,4.80568c0.0172,0.25112 0.14104,0.47988 0.34228,0.62952c0.20124,0.15308 0.46096,0.2064 0.70176,0.15308c1.44652,-0.3182 2.81564,-0.22704 4.18476,0.28724c2.87068,1.07844 4.8762,3.79948 4.99316,6.77336c0.08084,2.07604 -0.66564,4.042 -2.10012,5.53496c-1.4362,1.49468 -3.36948,2.31856 -5.44208,2.31856h-19.38268c-0.47472,0 -0.86,0.38528 -0.86,0.86c0,0.47472 0.38528,0.86 0.86,0.86h19.38612c2.54388,0 4.91576,-1.01136 6.68048,-2.84488c1.763,-1.83352 2.67976,-4.24668 2.58,-6.794c-0.14276,-3.65672 -2.5972,-6.99868 -6.106,-8.3162c-1.376,-0.51772 -2.79672,-0.68456 -4.24496,-0.51428c-0.64844,-3.13384 -3.43656,-5.47304 -6.7166,-5.47304c-1.17648,0 -2.32888,0.3096 -3.34368,0.8772c0,-0.66392 -0.0602,-1.32784 -0.18232,-1.99348c-0.82044,-4.40664 -4.50812,-7.86556 -8.9698,-8.41252c-2.88788,-0.3526 -5.7104,0.45752 -7.93952,2.28416c-1.72516,1.41556 -2.95152,3.35572 -3.50536,5.49196c-1.74064,-1.57552 -3.98868,-2.45272 -6.38808,-2.45272c-5.27524,0 -9.56664,4.29312 -9.56664,9.56836c0,0.14276 0.00344,0.28552 0.01204,0.42656c-3.87688,1.15756 -6.61856,4.77472 -6.61856,8.88208c-0.00172,5.11356 4.15552,9.26908 9.26736,9.26908z" fill="#472b29"></path><path d="M126.43204,83.6866c3.10976,-0.20468 5.7878,1.9436 5.97872,4.79708c0.02408,0.35432 0.0086,0.70348 -0.043,1.04232c0.60028,-0.67768 1.4878,-1.13692 2.50776,-1.204c1.8662,-0.12212 3.47784,1.1094 3.71176,2.7864c0.33884,-0.09288 0.69316,-0.1548 1.05952,-0.17888c2.72104,-0.17888 5.06368,1.70108 5.23224,4.19852" fill="#fdfcef"></path><path d="M144.87732,95.55632c0.01032,0 0.02064,0 0.02924,-0.00172c0.23736,-0.01548 0.41624,-0.22016 0.40076,-0.45752c-0.18404,-2.72964 -2.73136,-4.79708 -5.68976,-4.59928c-0.23564,0.01548 -0.46956,0.04472 -0.70348,0.09116c-0.47128,-1.66496 -2.16032,-2.8294 -4.06952,-2.69524c-0.731,0.04644 -1.41556,0.27348 -2.00208,0.65704c0,-0.03268 -0.00344,-0.06364 -0.00516,-0.09632c-0.2064,-3.0874 -3.07364,-5.4352 -6.43624,-5.19612c-0.23736,0.01548 -0.41624,0.22016 -0.40076,0.45752c0.01548,0.23736 0.21328,0.4386 0.45752,0.39904c2.83972,-0.1806 5.34576,1.78364 5.5212,4.39804c0.02064,0.31648 0.00688,0.6364 -0.03956,0.95116c-0.02924,0.18748 0.07052,0.37324 0.24252,0.45408c0.172,0.08084 0.37668,0.03784 0.50396,-0.10492c0.55556,-0.6278 1.3416,-1.00448 2.21364,-1.06124c1.63572,-0.05848 3.053,0.95632 3.25768,2.41488c0.0172,0.12212 0.086,0.2322 0.1892,0.301c0.1032,0.06708 0.22876,0.08772 0.35088,0.05504c0.32164,-0.08772 0.64844,-0.14276 0.97524,-0.16684c2.4768,-0.15824 4.62164,1.54112 4.773,3.79948c0.01892,0.22704 0.20812,0.40076 0.43172,0.40076z" fill="#472b29"></path><path d="M97.92304,86.55556c2.92228,-1.37772 6.30208,-0.40248 7.54908,2.17924c0.1548,0.31992 0.27004,0.65188 0.34572,0.98728" fill="#fdfcef"></path><path d="M105.81784,90.15208c0.03096,0 0.06364,-0.00344 0.09632,-0.01032c0.23048,-0.05332 0.37668,-0.2838 0.32336,-0.516c-0.08428,-0.37324 -0.21156,-0.73616 -0.37668,-1.07844c-1.34676,-2.78812 -4.99144,-3.85108 -8.12012,-2.3822c-0.215,0.1032 -0.30788,0.35776 -0.2064,0.57276c0.10148,0.21672 0.35948,0.30272 0.57276,0.2064c2.70728,-1.27968 5.83768,-0.39044 6.97976,1.97628c0.1376,0.2838 0.24252,0.5848 0.31304,0.89612c0.04472,0.20124 0.22188,0.3354 0.41796,0.3354z" fill="#472b29"></path><path d="M86,107.78896c-1.09392,0 -2.20504,-0.086 -3.30412,-0.25284c-9.19684,-1.40524 -16.13188,-9.24672 -16.13188,-18.2406v-26.59636c0,-8.99388 6.93504,-16.83536 16.13188,-18.2406c1.09908,-0.16856 2.2102,-0.25456 3.30412,-0.25456c10.7156,0 19.436,8.06508 19.436,17.97916v27.62664c0,9.91408 -8.7204,17.97916 -19.436,17.97916zM86,51.00488c-0.87892,0 -1.76644,0.08944 -2.64536,0.26832c-5.3836,1.0922 -9.29144,5.81016 -9.29144,11.21784v27.00744c0,5.40768 3.90784,10.12736 9.29144,11.21956c0.8772,0.17888 1.76472,0.26832 2.64364,0.26832v0c3.16824,0 6.15244,-1.1524 8.40736,-3.24736c2.27728,-2.1156 3.53288,-4.93468 3.53288,-7.93264v-27.6232c-0.00172,-6.16448 -5.35608,-11.17828 -11.93852,-11.17828z" fill="#f1c40f"></path><path d="M86.00172,43v2.408c10.05168,0 18.23028,7.525 18.23028,16.77516v27.62492c0,9.25016 -8.1786,16.77516 -18.232,16.77516c-1.032,0 -2.08292,-0.08084 -3.1218,-0.23908c-8.61376,-1.31752 -15.1102,-8.64816 -15.1102,-17.05208v-26.59292c0,-8.4022 6.49644,-15.73284 15.1102,-17.05208c1.03888,-0.15824 2.08808,-0.23908 3.1218,-0.23908l0.00172,-2.408M86,102.1938c7.24636,0 13.1408,-5.5556 13.1408,-12.384v-27.62492c0,-6.8284 -5.89444,-12.384 -13.1408,-12.384c-0.95804,0 -1.92812,0.09804 -2.88444,0.2924c-5.9426,1.20744 -10.25636,6.42248 -10.25636,12.39948v27.00916c0,5.977 4.31376,11.19204 10.25636,12.39948c0.95632,0.19264 1.9264,0.2924 2.88444,0.2924M86,43c-1.14208,0 -2.30824,0.08772 -3.48472,0.2666c-10.03276,1.53596 -17.15528,9.98116 -17.15528,19.43256v26.59636c0,9.4514 7.12252,17.8966 17.15528,19.43256c1.1782,0.1806 2.34264,0.2666 3.48472,0.2666c11.38124,0 20.64,-8.60516 20.64,-19.18488v-27.62492c0,-10.57972 -9.25876,-19.1866 -20.64,-19.18488zM86,99.7858c-0.78432,0 -1.58928,-0.07912 -2.40456,-0.24424c-4.95704,-1.0062 -8.32824,-5.3234 -8.32824,-10.03964v-27.00916c0,-4.71624 3.3712,-9.03172 8.32824,-10.03964c0.81528,-0.16512 1.62024,-0.24424 2.40456,-0.24424c5.9168,0 10.7328,4.47544 10.7328,9.976v27.62492c0,5.50056 -4.81428,9.976 -10.7328,9.976z" fill="#472b29"></path><g><path d="M86,71.724c-15.48386,0 -28.036,12.55214 -28.036,28.036c0,15.48386 12.55214,28.036 28.036,28.036c15.48386,0 28.036,-12.55214 28.036,-28.036c0,-15.48386 -12.55214,-28.036 -28.036,-28.036z" fill="#f2df5e"></path><path d="M86,72.928c14.79544,0 26.832,12.03656 26.832,26.832c0,14.79544 -12.03656,26.832 -26.832,26.832c-14.79544,0 -26.832,-12.03656 -26.832,-26.832c0,-14.79544 12.03656,-26.832 26.832,-26.832M86,70.52c-16.14908,0 -29.24,13.09092 -29.24,29.24c0,16.14908 13.09092,29.24 29.24,29.24c16.14908,0 29.24,-13.09092 29.24,-29.24c0,-16.14908 -13.09092,-29.24 -29.24,-29.24z" fill="#472b29"></path></g><g fill="#472b29"><path d="M84.80116,72.0594h0.86v55.40292h-0.86z"></path></g><g fill="#472b29"><path d="M57.52884,99.33h55.40292v0.86h-55.40292z"></path></g><g fill="#472b29"><path d="M65.33844,119.04357l39.17388,-39.17525l0.60812,0.6081l-39.17388,39.17525z"></path><path d="M71.02067,123.54347l27.67296,-47.99479l0.74652,0.43043l-27.67296,47.99479z"></path><path d="M78.34256,126.59372l-0.83076,-0.22532l14.60796,-53.44212l0.82904,0.22532z"></path><path d="M58.64856,107.56536l-0.22876,-0.82904l53.39396,-14.78168l0.22876,0.82904z"></path><path d="M61.50376,114.05836l-0.43344,-0.74132l47.88824,-27.8554l0.43344,0.74132z"></path></g><g fill="#472b29"><path d="M65.33634,80.48056l0.6081,-0.60812l39.17525,39.17388l-0.6081,0.60812z"></path><path d="M71.00394,75.98541l0.74627,-0.43086l27.7006,47.97885l-0.74627,0.43086z"></path><path d="M92.11976,126.59372l-14.60796,-53.44212l0.83076,-0.22532l14.60624,53.44212z"></path><path d="M111.81376,107.56536l-53.39396,-14.78168l0.22876,-0.82904l53.39396,14.78168z"></path><path d="M108.95856,114.05836l-47.88824,-27.8554l0.43344,-0.74132l47.88824,27.8554z"></path></g><g fill="#f1c40f"><path d="M86,80.52352c-10.62401,0 -19.23648,8.61247 -19.23648,19.23648c0,10.62401 8.61247,19.23648 19.23648,19.23648c10.62401,0 19.23648,-8.61247 19.23648,-19.23648c0,-10.62401 -8.61247,-19.23648 -19.23648,-19.23648z"></path></g><g fill="#472b29"><path d="M86,119.8582c-11.08196,0 -20.0982,-9.01452 -20.0982,-20.0982c0,-11.08368 9.01624,-20.0982 20.0982,-20.0982c2.3048,0 4.56488,0.38872 6.72176,1.1524c0.44892,0.15996 0.68112,0.65188 0.5246,1.09908c-0.15996,0.44892 -0.6536,0.68284 -1.09908,0.5246c-1.97112,-0.70004 -4.04028,-1.05436 -6.14728,-1.05436c-10.13424,0 -18.3782,8.24396 -18.3782,18.3782c0,10.13424 8.24396,18.37648 18.3782,18.37648c2.25836,0 4.4634,-0.4042 6.55492,-1.204c0.44032,-0.17028 0.94084,0.0516 1.11112,0.49536c0.17028,0.44376 -0.0516,0.94084 -0.49536,1.11112c-2.29104,0.87376 -4.70248,1.31752 -7.17068,1.31752z"></path></g><g fill="#472b29"><path d="M100.96572,112.70644c-0.1892,0 -0.38184,-0.06192 -0.54008,-0.19092c-0.3698,-0.29928 -0.42656,-0.83936 -0.12728,-1.20916c2.62988,-3.25424 4.07984,-7.353 4.07984,-11.54636c0,-2.5026 -0.49364,-4.92608 -1.46888,-7.2068c-0.18576,-0.43688 0.0172,-0.94256 0.45408,-1.12832c0.43172,-0.18404 0.94256,0.01548 1.12832,0.45408c1.06468,2.494 1.60648,5.14624 1.60648,7.88276c0,4.58552 -1.58584,9.06784 -4.4634,12.62824c-0.17028,0.20812 -0.41796,0.31648 -0.66908,0.31648z"></path></g><g fill="#472b29"><path d="M100.7146,88.22912c-0.24596,0 -0.48676,-0.10492 -0.65876,-0.30616c-1.05608,-1.25388 -2.27728,-2.365 -3.62748,-3.29896c-0.39216,-0.27004 -0.48848,-0.80668 -0.21844,-1.1954c0.26832,-0.39388 0.80668,-0.4902 1.1954,-0.21844c1.47576,1.01996 2.81048,2.23256 3.96804,3.60512c0.30616,0.36292 0.258,0.90472 -0.10492,1.2126c-0.16168,0.13416 -0.35776,0.20124 -0.55384,0.20124z"></path></g><g><path d="M83.07944,106.21l1.33644,-7.02448c0.03268,-0.16512 -0.03612,-0.33024 -0.17028,-0.43c-0.78604,-0.5676 -1.2556,-1.47748 -1.2556,-2.43552c0,-1.6598 1.3502,-3.01 3.01,-3.01c1.6598,0 3.01,1.3502 3.01,3.01c0,0.95804 -0.46956,1.86792 -1.2556,2.43552c-0.13416,0.09976 -0.20124,0.26488 -0.17028,0.43l1.33644,7.02448z" fill="#000000"></path><path d="M86,93.74c1.42244,0 2.58,1.15756 2.58,2.58c0,0.83248 -0.39388,1.59272 -1.07844,2.08808c-0.27176,0.19608 -0.4042,0.52976 -0.34228,0.85828l1.24012,6.51364h-4.80224l1.24012,-6.51364c0.06192,-0.32852 -0.07052,-0.6622 -0.34228,-0.85828c-0.68112,-0.49536 -1.075,-1.2556 -1.075,-2.08808c0,-1.42244 1.15756,-2.58 2.58,-2.58M86,92.88c-1.9006,0 -3.44,1.5394 -3.44,3.44c0,1.14896 0.56932,2.16032 1.43448,2.78468l-1.43448,7.53532h6.88l-1.43448,-7.53532c0.86516,-0.62436 1.43448,-1.63572 1.43448,-2.78468c0,-1.9006 -1.5394,-3.44 -3.44,-3.44z" fill="#472b29"></path></g><g><path d="M70.82616,132.93364c3.23876,0 6.04924,0 6.0888,0c3.6292,0 6.57212,-2.87928 6.57212,-6.43108c0,-3.09944 -2.23944,-5.6846 -5.2202,-6.2952c0.0344,-0.27176 0.05848,-0.54524 0.05848,-0.8256c0,-3.67908 -3.04784,-6.66156 -6.80604,-6.66156c-2.2188,0 -4.18476,1.04404 -5.4266,2.65396c-0.3182,-4.09532 -4.05576,-7.25496 -8.428,-6.73036c-3.19748,0.38356 -5.84284,2.80188 -6.43108,5.90132c-0.1892,0.99416 -0.16856,1.95908 0.01892,2.8638c-0.85656,-0.903 -2.07776,-1.47232 -3.43656,-1.47232c-2.48712,0 -4.51844,1.89544 -4.6784,4.28968c-1.13004,-0.24424 -2.35812,-0.22876 -3.65156,0.24596c-2.47336,0.90816 -4.23464,3.18716 -4.33784,5.77232c-0.1462,3.66876 2.85004,6.68908 6.56696,6.68908c0.28208,0 1.27452,0 1.50328,0h13.64648M59.68572,132.93364h0.6192" fill="#fdfcef"></path><path d="M76.91496,133.79536h-6.0888c-0.47472,0 -0.86,-0.38528 -0.86,-0.86c0,-0.47472 0.38528,-0.86 0.86,-0.86h6.0888c3.14932,0 5.71212,-2.49916 5.71212,-5.57108c0,-2.62128 -1.90576,-4.91576 -4.53392,-5.4524c-0.44032,-0.09116 -0.73788,-0.50568 -0.68112,-0.95288c0.03096,-0.23564 0.0516,-0.473 0.0516,-0.71724c0,-3.1992 -2.66772,-5.80156 -5.94604,-5.80156c-1.87824,0 -3.60856,0.84452 -4.7472,2.32028c-0.21672,0.28208 -0.58652,0.39732 -0.92708,0.29928c-0.34056,-0.1032 -0.58308,-0.40248 -0.6106,-0.7568c-0.13588,-1.7544 -0.9718,-3.34368 -2.35468,-4.47888c-1.42588,-1.1696 -3.2422,-1.68388 -5.11356,-1.46716c-2.83112,0.33884 -5.17032,2.48024 -5.68804,5.20644c-0.16168,0.8514 -0.15652,1.7028 0.01548,2.53184c0.0774,0.37668 -0.1032,0.75852 -0.44376,0.9374c-0.33884,0.17544 -0.7568,0.10836 -1.02168,-0.172c-0.73616,-0.77572 -1.73548,-1.204 -2.8122,-1.204c-2.01068,0 -3.6894,1.53252 -3.82012,3.48644c-0.0172,0.25112 -0.14104,0.47816 -0.34056,0.62952c-0.19952,0.14964 -0.45408,0.2064 -0.69832,0.15308c-1.09908,-0.23736 -2.13796,-0.16856 -3.17512,0.215c-2.17064,0.79636 -3.68768,2.80532 -3.7754,4.9966c-0.0602,1.50672 0.48676,2.93948 1.5394,4.03512c1.0922,1.1352 2.57312,1.76128 4.16756,1.76128h15.14804c0.47472,0 0.86,0.38528 0.86,0.86c0,0.47472 -0.38528,0.86 -0.86,0.86h-15.14804c-2.0382,0 -4.00932,-0.8342 -5.40768,-2.28932c-1.38116,-1.43792 -2.09668,-3.31788 -2.01756,-5.29416c0.11524,-2.881 2.08464,-5.51088 4.90028,-6.54632c1.0492,-0.387 2.1328,-0.52288 3.2336,-0.41968c0.59168,-2.40112 2.80188,-4.16928 5.3922,-4.16928c0.84796,0 1.68044,0.19436 2.43208,0.55556c0.01548,-0.41624 0.06364,-0.83248 0.14276,-1.25044c0.65532,-3.45548 3.60512,-6.1662 7.1724,-6.59276c2.3478,-0.28724 4.6182,0.37496 6.40872,1.84212c1.28656,1.05436 2.19816,2.42348 2.65912,3.95944c1.36052,-1.11456 3.07192,-1.73204 4.88824,-1.73204c4.22776,0 7.66604,3.37464 7.66604,7.52156c0,0.05848 0,0.11696 -0.00172,0.17716c3.03408,0.9546 5.16516,3.76336 5.16516,6.94536c0.00172,4.02308 -3.33164,7.29452 -7.4304,7.29452zM60.30492,133.79536h-0.6192c-0.47472,0 -0.86,-0.38528 -0.86,-0.86c0,-0.47472 0.38528,-0.86 0.86,-0.86h0.6192c0.47472,0 0.86,0.38528 0.86,0.86c0,0.47472 -0.38528,0.86 -0.86,0.86z" fill="#472b29"></path><g fill="#472b29"><path d="M73.97892,123.81248c-0.03096,0 -0.06192,-0.00344 -0.0946,-0.01032c-0.2322,-0.0516 -0.3784,-0.28208 -0.32508,-0.51428c0.06364,-0.28208 0.16168,-0.559 0.2924,-0.82388c1.03888,-2.10528 3.90784,-2.88444 6.40184,-1.73204c0.215,0.09976 0.3096,0.35432 0.20984,0.56932c-0.09976,0.21672 -0.35604,0.30788 -0.57104,0.20984c-2.06572,-0.95632 -4.43244,-0.35776 -5.26836,1.33128c-0.09976,0.20296 -0.17544,0.41624 -0.2236,0.63124c-0.04644,0.20296 -0.2236,0.33884 -0.4214,0.33884z"></path></g><g fill="#472b29"><path d="M65.10544,133.79536h-1.90404c-0.47472,0 -0.86,-0.38528 -0.86,-0.86c0,-0.47472 0.38528,-0.86 0.86,-0.86h1.90404c0.47472,0 0.86,0.38528 0.86,0.86c0,0.47472 -0.38356,0.86 -0.86,0.86z"></path></g></g></g></g></svg>
