<svg xmlns="http://www.w3.org/2000/svg" x="0px" y="0px"
width="100" height="100"
viewBox="0 0 172 172"
style=" fill:#000000;"><g fill="none" fill-rule="nonzero" stroke="none" stroke-width="1" stroke-linecap="butt" stroke-linejoin="miter" stroke-miterlimit="10" stroke-dasharray="" stroke-dashoffset="0" font-family="none" font-weight="none" font-size="none" text-anchor="none" style="mix-blend-mode: normal"><path d="M0,172v-172h172v172z" fill="none"></path><g><path d="M123.09524,36.6532h-17.2516c-0.47472,0 -0.86,-0.38528 -0.86,-0.86c0,-0.47472 0.38528,-0.86 0.86,-0.86h17.2516c0.47472,0 0.86,0.38528 0.86,0.86c0,0.47472 -0.38528,0.86 -0.86,0.86zM128.05056,36.6532h-2.48712c-0.47472,0 -0.86,-0.38528 -0.86,-0.86c0,-0.47472 0.38528,-0.86 0.86,-0.86h2.48712c0.47472,0 0.86,0.38528 0.86,0.86c0,0.47472 -0.38356,0.86 -0.86,0.86zM135.02344,36.6532h-4.37912c-0.47472,0 -0.86,-0.38528 -0.86,-0.86c0,-0.47472 0.38528,-0.86 0.86,-0.86h4.37912c0.47472,0 0.86,0.38528 0.86,0.86c0,0.47472 -0.38356,0.86 -0.86,0.86zM131.54044,30.2376h-16.54124c-0.47472,0 -0.86,-0.38528 -0.86,-0.86c0,-0.47472 0.38528,-0.86 0.86,-0.86h16.54124c0.47472,0 0.86,0.38528 0.86,0.86c0,0.47472 -0.38528,0.86 -0.86,0.86zM112.02188,30.2376h-0.9976c-0.47472,0 -0.86,-0.38528 -0.86,-0.86c0,-0.47472 0.38528,-0.86 0.86,-0.86h0.9976c0.47472,0 0.86,0.38528 0.86,0.86c0,0.47472 -0.38528,0.86 -0.86,0.86zM107.93344,30.2376h-2.50432c-0.47472,0 -0.86,-0.38528 -0.86,-0.86c0,-0.47472 0.38528,-0.86 0.86,-0.86h2.50432c0.47472,0 0.86,0.38528 0.86,0.86c0,0.47472 -0.38528,0.86 -0.86,0.86zM127.13208,33.4454h-8.64644c-0.47472,0 -0.86,-0.38528 -0.86,-0.86c0,-0.47472 0.38528,-0.86 0.86,-0.86h8.64644c0.47472,0 0.86,0.38528 0.86,0.86c0,0.47472 -0.38528,0.86 -0.86,0.86z" fill="#ffffff"></path><path d="M127.13208,30.2376h-2.16204c-0.47472,0 -0.86,-0.38528 -0.86,-0.86c0,-0.47472 0.38528,-0.86 0.86,-0.86h2.16204c0.47472,0 0.86,0.38528 0.86,0.86c0,0.47472 -0.38528,0.86 -0.86,0.86zM115.98132,33.4454h-3.02548c-0.47472,0 -0.86,-0.38528 -0.86,-0.86c0,-0.47472 0.38528,-0.86 0.86,-0.86h3.02548c0.47472,0 0.86,0.38528 0.86,0.86c0,0.47472 -0.38356,0.86 -0.86,0.86z" fill="#ffffff"></path><path d="M152.72568,95.4944c0.516,-1.05952 0.97352,-2.17408 1.36912,-3.34196c4.52876,-13.3644 -2.32028,-29.37416 -16.74076,-33.239c-1.55832,-19.58048 -15.31832,-33.01196 -30.85852,-35.30472c-17.78652,-2.623 -34.08008,8.67568 -39.50152,26.6342c-6.53428,-2.31512 -12.90172,-2.03304 -18.9028,1.47404c-2.72276,1.25904 -5.21332,3.11664 -7.4476,5.56076c-3.28004,3.58792 -5.41284,8.11668 -6.28144,12.8914c-1.28656,0.20296 -2.55076,0.40592 -3.74272,0.83248c-6.9488,2.49228 -11.33308,7.62132 -12.53536,15.34756c-0.7482,4.81084 0.76196,9.60964 1.60476,11.54808c3.3282,7.6626 11.04584,12.0056 18.88732,10.85664c0.39044,-0.05676 0.95804,0.11868 1.29344,0.40076c0.41452,12.2464 6.36056,23.07724 15.28048,29.26408c14.31212,9.92784 32.72644,6.86968 44.34332,-6.74412c4.97768,5.0912 10.90136,7.56456 17.86048,6.66672c6.91956,-0.89268 12.29284,-4.71108 16.21272,-10.92028c1.81116,0.48676 3.52772,1.18852 5.30276,1.38288c6.95224,0.76024 12.59728,-2.0038 16.73904,-8.256c1.58584,-2.39252 3.08396,-5.49368 3.08396,-10.92888c0.00172,-5.5986 -2.22224,-10.70184 -5.96668,-14.12464z" fill="#f1c40f"></path><path d="M132.26628,84.09424c0,0 20.10852,0 20.23064,0c4.644,0 8.40736,-3.76508 8.40736,-8.40908c0,-4.0506 -2.86552,-7.43212 -6.68048,-8.22848c0.04472,-0.35432 0.07396,-0.7138 0.07396,-1.08016c0,-4.80912 -3.89924,-8.70836 -8.70836,-8.70836c-2.83972,0 -5.35436,1.36568 -6.94364,3.46924c-0.40592,-5.35436 -5.18924,-9.48408 -10.7844,-8.79952c-4.09188,0.50052 -7.47512,3.6636 -8.22848,7.71592c-0.2408,1.30032 -0.21672,2.56108 0.02408,3.74444c-1.09736,-1.18164 -2.65912,-1.92468 -4.39804,-1.92468c-3.182,0 -5.78092,2.47852 -5.9856,5.60892c-1.4448,-0.31992 -3.01688,-0.29928 -4.67324,0.32336c-3.1648,1.18852 -5.418,4.16756 -5.55044,7.54564c-0.18748,4.79708 3.6464,8.7462 8.4022,8.7462c0.3612,0 1.63056,0 1.92296,0h17.45972" fill="#fdfcef"></path><path d="M152.49864,84.95424h-20.23236c-0.47472,0 -0.86,-0.38528 -0.86,-0.86c0,-0.47472 0.38528,-0.86 0.86,-0.86h20.23064c4.16068,0 7.54736,-3.38668 7.54736,-7.54908c0,-3.55352 -2.52152,-6.66156 -5.99592,-7.38912c-0.4386,-0.09116 -0.73272,-0.50396 -0.67768,-0.94944c0.03956,-0.31992 0.06708,-0.64156 0.06708,-0.9718c0,-4.32752 -3.52084,-7.84664 -7.84836,-7.84664c-2.47508,0 -4.7558,1.13864 -6.25736,3.12696c-0.215,0.28552 -0.5848,0.40592 -0.9288,0.30616c-0.344,-0.10148 -0.58824,-0.40248 -0.61576,-0.75852c-0.1806,-2.37016 -1.33988,-4.59584 -3.18372,-6.106c-1.86104,-1.52736 -4.21916,-2.19816 -6.63748,-1.90576c-3.72724,0.45752 -6.80432,3.34196 -7.48716,7.0176c-0.21328,1.15068 -0.2064,2.30136 0.02064,3.41764c0.0774,0.3784 -0.10664,0.76024 -0.44892,0.93568c-0.344,0.17888 -0.76196,0.1032 -1.0234,-0.17888c-0.98728,-1.06296 -2.32544,-1.64948 -3.7668,-1.64948c-2.69868,0 -4.95016,2.11044 -5.12732,4.80396c-0.0172,0.25112 -0.14104,0.4816 -0.34228,0.63124c-0.20124,0.15136 -0.46096,0.20296 -0.70176,0.15308c-1.4448,-0.31648 -2.81564,-0.22532 -4.18476,0.28724c-2.87068,1.07844 -4.87792,3.79948 -4.99316,6.77336c-0.08084,2.07604 0.66564,4.04372 2.10184,5.53668c1.4362,1.49296 3.36776,2.31684 5.44036,2.31684h19.38268c0.47472,0 0.86,0.38528 0.86,0.86c0,0.47472 -0.38528,0.86 -0.86,0.86h-19.38096c-2.54388,0 -4.91576,-1.00964 -6.68048,-2.84488c-1.763,-1.8318 -2.67976,-4.24668 -2.58,-6.794c0.14276,-3.65672 2.5972,-6.99868 6.10772,-8.3162c1.376,-0.516 2.80016,-0.68456 4.24496,-0.51428c0.64672,-3.13384 3.43484,-5.47304 6.7166,-5.47304c1.1782,0 2.32888,0.3096 3.34368,0.8772c0,-0.66392 0.0602,-1.32784 0.18404,-1.99348c0.81872,-4.40664 4.5064,-7.86556 8.9698,-8.41252c2.8896,-0.35948 5.70868,0.4558 7.9378,2.28244c1.72688,1.41384 2.95324,3.354 3.50708,5.49196c1.73892,-1.5738 3.98696,-2.451 6.38636,-2.451c5.27524,0 9.56836,4.2914 9.56836,9.56664c0,0.14448 -0.00344,0.28552 -0.01204,0.42656c3.87688,1.15928 6.61856,4.77816 6.61856,8.8838c-0.00172,5.11184 -4.15896,9.26908 -9.26908,9.26908z" fill="#472b29"></path><path d="M127.39352,65.57156c-3.10976,-0.20468 -5.7878,1.9436 -5.97872,4.79708c-0.02408,0.35432 -0.0086,0.70348 0.043,1.04232c-0.60028,-0.67768 -1.4878,-1.13692 -2.50776,-1.204c-1.8662,-0.12212 -3.47784,1.1094 -3.71176,2.7864c-0.33884,-0.09288 -0.69316,-0.1548 -1.05952,-0.17888c-2.72104,-0.17888 -5.06368,1.70108 -5.23224,4.19852" fill="#fdfcef"></path><path d="M108.94824,77.44128c-0.01032,0 -0.02064,0 -0.02924,-0.00172c-0.23736,-0.01548 -0.41624,-0.22016 -0.40076,-0.45752c0.18232,-2.72964 2.73824,-4.78848 5.68976,-4.59756c0.2322,0.01376 0.46612,0.043 0.70348,0.09116c0.46956,-1.66668 2.16548,-2.83972 4.06952,-2.69696c0.731,0.04644 1.41556,0.2752 2.00036,0.65704c0.00172,-0.03268 0.00344,-0.06364 0.00516,-0.09632c0.2064,-3.08396 3.096,-5.43864 6.43624,-5.19612c0.23736,0.01548 0.41624,0.22016 0.40076,0.45752c-0.01548,0.23564 -0.2322,0.43344 -0.45752,0.39904c-2.88616,-0.15996 -5.34748,1.78708 -5.5212,4.39976c-0.02236,0.31648 -0.0086,0.63468 0.03956,0.94772c0.02924,0.18748 -0.07052,0.37324 -0.24252,0.4558c-0.172,0.08084 -0.37668,0.03784 -0.50396,-0.10492c-0.54696,-0.61748 -1.35536,-1.00448 -2.21536,-1.06124c-1.5996,-0.07396 -3.053,0.95632 -3.25768,2.4166c-0.0172,0.12212 -0.086,0.2322 -0.1892,0.301c-0.1032,0.06708 -0.22876,0.08772 -0.35088,0.05504c-0.32852,-0.08944 -0.65532,-0.14448 -0.97352,-0.16684c-2.4596,-0.14792 -4.62336,1.54112 -4.77472,3.79776c-0.01376,0.22704 -0.20296,0.40076 -0.42828,0.40076z" fill="#472b29"></path><path d="M155.90252,68.44224c-2.92228,-1.37772 -6.30208,-0.40248 -7.54908,2.17924c-0.1548,0.31992 -0.27004,0.65188 -0.34572,0.98728" fill="#fdfcef"></path><path d="M148.00772,72.03704c-0.03096,0 -0.06364,-0.00344 -0.09632,-0.01032c-0.2322,-0.05332 -0.37668,-0.2838 -0.32336,-0.516c0.08428,-0.37152 0.21156,-0.73444 0.37668,-1.07672c1.34676,-2.78984 4.98972,-3.85624 8.12012,-2.3822c0.215,0.1032 0.30788,0.35776 0.2064,0.57276c-0.10148,0.215 -0.35776,0.30444 -0.57276,0.2064c-2.70556,-1.27796 -5.83768,-0.39044 -6.97976,1.97456c-0.1376,0.28552 -0.24252,0.58652 -0.31304,0.89612c-0.043,0.19952 -0.22016,0.3354 -0.41796,0.3354z" fill="#472b29"></path><path d="M31.74948,81.79632h-17.2516c-0.47472,0 -0.86,-0.38528 -0.86,-0.86c0,-0.47472 0.38528,-0.86 0.86,-0.86h17.25332c0.47472,0 0.86,0.38528 0.86,0.86c0,0.47472 -0.38528,0.86 -0.86172,0.86zM36.7048,81.79632h-2.48712c-0.47472,0 -0.86,-0.38528 -0.86,-0.86c0,-0.47472 0.38528,-0.86 0.86,-0.86h2.48712c0.47472,0 0.86,0.38528 0.86,0.86c0,0.47472 -0.38356,0.86 -0.86,0.86zM43.6794,81.79632h-4.37912c-0.47472,0 -0.86,-0.38528 -0.86,-0.86c0,-0.47472 0.38528,-0.86 0.86,-0.86h4.37912c0.47472,0 0.86,0.38528 0.86,0.86c0,0.47472 -0.38528,0.86 -0.86,0.86zM43.6794,85.00584h-16.53952c-0.47472,0 -0.86,-0.38528 -0.86,-0.86c0,-0.47472 0.38528,-0.86 0.86,-0.86h16.53952c0.47472,0 0.86,0.38528 0.86,0.86c0,0.47472 -0.38528,0.86 -0.86,0.86zM24.16084,85.00584h-0.9976c-0.47472,0 -0.86,-0.38528 -0.86,-0.86c0,-0.47472 0.38528,-0.86 0.86,-0.86h0.9976c0.47472,0 0.86,0.38528 0.86,0.86c0,0.47472 -0.38356,0.86 -0.86,0.86zM20.0724,85.00584h-2.50604c-0.47472,0 -0.86,-0.38528 -0.86,-0.86c0,-0.47472 0.38528,-0.86 0.86,-0.86h2.50604c0.47472,0 0.86,0.38528 0.86,0.86c0,0.47472 -0.38356,0.86 -0.86,0.86zM35.78632,78.58852h-8.64644c-0.47472,0 -0.86,-0.38528 -0.86,-0.86c0,-0.47472 0.38528,-0.86 0.86,-0.86h8.64644c0.47472,0 0.86,0.38528 0.86,0.86c0,0.47472 -0.38356,0.86 -0.86,0.86zM35.78632,75.38244h-2.16204c-0.47472,0 -0.86,-0.38528 -0.86,-0.86c0,-0.47472 0.38528,-0.86 0.86,-0.86h2.16204c0.47472,0 0.86,0.38528 0.86,0.86c0,0.47472 -0.38356,0.86 -0.86,0.86zM30.16536,88.21192h-3.02548c-0.47472,0 -0.86,-0.38528 -0.86,-0.86c0,-0.47472 0.38528,-0.86 0.86,-0.86h3.02548c0.47472,0 0.86,0.38528 0.86,0.86c0,0.47472 -0.38528,0.86 -0.86,0.86zM123.21564,36.59988h-17.2516c-0.47472,0 -0.86,-0.38528 -0.86,-0.86c0,-0.47472 0.38528,-0.86 0.86,-0.86h17.2516c0.47472,0 0.86,0.38528 0.86,0.86c0,0.47472 -0.38356,0.86 -0.86,0.86zM128.17268,36.59988h-2.48712c-0.47472,0 -0.86,-0.38528 -0.86,-0.86c0,-0.47472 0.38528,-0.86 0.86,-0.86h2.48712c0.47472,0 0.86,0.38528 0.86,0.86c0,0.47472 -0.38528,0.86 -0.86,0.86zM135.14556,36.59988h-4.37912c-0.47472,0 -0.86,-0.38528 -0.86,-0.86c0,-0.47472 0.38528,-0.86 0.86,-0.86h4.37912c0.47472,0 0.86,0.38528 0.86,0.86c0,0.47472 -0.38528,0.86 -0.86,0.86zM131.66084,30.18428h-16.54124c-0.47472,0 -0.86,-0.38528 -0.86,-0.86c0,-0.47472 0.38528,-0.86 0.86,-0.86h16.54124c0.47472,0 0.86,0.38528 0.86,0.86c0,0.47472 -0.38356,0.86 -0.86,0.86zM112.14228,30.18428h-0.9976c-0.47472,0 -0.86,-0.38528 -0.86,-0.86c0,-0.47472 0.38528,-0.86 0.86,-0.86h0.9976c0.47472,0 0.86,0.38528 0.86,0.86c0,0.47472 -0.38356,0.86 -0.86,0.86zM108.05384,30.18428h-2.50432c-0.47472,0 -0.86,-0.38528 -0.86,-0.86c0,-0.47472 0.38528,-0.86 0.86,-0.86h2.50432c0.47472,0 0.86,0.38528 0.86,0.86c0,0.47472 -0.38356,0.86 -0.86,0.86zM127.25248,33.3938h-8.64644c-0.47472,0 -0.86,-0.38528 -0.86,-0.86c0,-0.47472 0.38528,-0.86 0.86,-0.86h8.64644c0.47472,0 0.86,0.38528 0.86,0.86c0,0.47472 -0.38528,0.86 -0.86,0.86z" fill="#ffffff"></path><path d="M127.25248,30.18428h-2.16204c-0.47472,0 -0.86,-0.38528 -0.86,-0.86c0,-0.47472 0.38528,-0.86 0.86,-0.86h2.16204c0.47472,0 0.86,0.38528 0.86,0.86c0,0.47472 -0.38528,0.86 -0.86,0.86zM116.10172,33.3938h-3.02548c-0.47472,0 -0.86,-0.38528 -0.86,-0.86c0,-0.47472 0.38528,-0.86 0.86,-0.86h3.02548c0.47472,0 0.86,0.38528 0.86,0.86c0,0.47472 -0.38356,0.86 -0.86,0.86z" fill="#ffffff"></path><path d="M115.0766,124.6828h-51.10636c-6.47752,0 -11.77684,-5.29932 -11.77684,-11.77684v-51.10808c0,-6.47752 5.29932,-11.77684 11.77684,-11.77684h51.10636c6.47752,0 11.77684,5.29932 11.77684,11.77684v51.10636c0.00172,6.47752 -5.29932,11.77856 -11.77684,11.77856z" fill="#f1c40f"></path><path d="M115.0766,125.8868h-51.10636c-7.15864,0 -12.98084,-5.82392 -12.98084,-12.98256v-51.10636c0,-7.15692 5.82392,-12.98084 12.98084,-12.98084h51.10636c7.15864,0 12.98256,5.82392 12.98256,12.98084v51.10636c0,7.15864 -5.82392,12.98256 -12.98256,12.98256zM63.97024,51.22676c-5.8308,0 -10.57284,4.74204 -10.57284,10.57112v51.10636c0,5.8308 4.74204,10.57284 10.57284,10.57284h51.10636c5.8308,0 10.57284,-4.74376 10.57284,-10.57284v-51.10636c0,-5.8308 -4.74376,-10.57112 -10.57284,-10.57112z" fill="#472b29"></path><path d="M111.97716,119.34908h-44.90576c-5.24944,0 -9.54428,-4.29484 -9.54428,-9.54428v-44.90576c0,-5.24944 4.29484,-9.54428 9.54428,-9.54428h44.90748c5.24944,0 9.54428,4.29484 9.54428,9.54428v44.90576c-0.00172,5.24944 -4.29656,9.54428 -9.546,9.54428z" fill="#fdfcee"></path><path d="M111.79656,119.95108h-44.54456c-5.69492,0 -10.32688,-4.63196 -10.32688,-10.32688v-44.54456c0,-5.69492 4.63196,-10.32688 10.32688,-10.32688h42.42036c0.33196,0 0.602,0.26832 0.602,0.602c0,0.33196 -0.27004,0.602 -0.602,0.602h-42.42036c-5.02928,0 -9.12288,4.0936 -9.12288,9.1246v44.54456c0,5.031 4.09188,9.1246 9.12288,9.1246h44.54456c5.031,0 9.12288,-4.0936 9.12288,-9.1246v-24.64416c0,-0.33196 0.27004,-0.602 0.602,-0.602c0.33196,0 0.602,0.26832 0.602,0.602v24.64244c0,5.69492 -4.63196,10.32688 -10.32688,10.32688zM121.52144,82.0268c-0.33196,0 -0.602,-0.26832 -0.602,-0.602v-4.74032c0,-0.33196 0.27004,-0.602 0.602,-0.602c0.33196,0 0.602,0.26832 0.602,0.602v4.74032c0,0.33368 -0.26832,0.602 -0.602,0.602zM121.52144,74.91632c-0.33196,0 -0.602,-0.26832 -0.602,-0.602v-2.37016c0,-0.33196 0.27004,-0.602 0.602,-0.602c0.33196,0 0.602,0.26832 0.602,0.602v2.37016c0,0.33368 -0.26832,0.602 -0.602,0.602z" fill="#472b29"></path><path d="M106.02424,87.763c-0.0516,-2.45616 1.27796,-4.01104 3.50364,-4.87276c-0.13588,-1.3416 -1.69764,-5.11184 -2.48712,-6.00968c-2.13624,0.99932 -4.15896,0.84796 -5.86176,-0.8342c-1.73032,-1.70796 -1.8662,-3.75132 -0.86172,-5.934c-1.87652,-1.15584 -3.88892,-1.99004 -6.04064,-2.48884c-0.72756,2.11732 -2.13968,3.44344 -4.3516,3.60684c-2.623,0.19264 -4.32236,-1.16272 -5.2202,-3.58448c-2.15172,0.52632 -4.15724,1.3588 -6.01656,2.52324c1.0234,2.16204 0.89096,4.18304 -0.7912,5.89444c-1.7028,1.73204 -3.74272,1.89372 -5.93056,0.8858c-1.14036,1.87652 -1.95908,3.88376 -2.451,6.03376c2.18784,0.80152 3.50708,2.30308 3.56212,4.63024c0.05676,2.42176 -1.247,4.00416 -3.49504,4.87964c0.51772,2.1328 1.36052,4.11768 2.52496,5.977c2.12248,-0.946 4.10392,-0.78948 5.77748,0.83764c1.70452,1.65808 1.91092,3.66188 0.96836,5.82564c1.87824,1.14208 3.87516,1.95736 6.0114,2.451c0.03268,-0.06364 0.05504,-0.10148 0.07224,-0.14276c0.77228,-2.01412 2.52668,-3.30068 4.53392,-3.32648c2.14656,-0.02752 3.92504,1.1696 4.74548,3.21468c0.08944,0.2236 0.19264,0.21844 0.38356,0.17028c1.93328,-0.48848 3.7582,-1.24184 5.47132,-2.2618c0.09288,-0.05504 0.18232,-0.1204 0.25628,-0.16856c-0.87032,-1.96424 -0.7912,-3.827 0.60028,-5.44896c1.67356,-1.94876 3.77712,-2.236 6.11632,-1.24012c1.15412,-1.8662 1.9866,-3.85624 2.49228,-5.9856c-2.1586,-0.8256 -3.46408,-2.30308 -3.51224,-4.63196zM89.51912,91.117c-1.94876,-0.0086 -3.51912,-1.58756 -3.51052,-3.53116c0.0086,-1.94704 1.59616,-3.5088 3.5604,-3.48988c1.96252,0.01892 3.52772,1.64432 3.47096,3.61372c-0.05332,1.83008 -1.54112,3.39528 -3.52084,3.40732z" fill="#f1c40f"></path><path d="M84.83384,108.18456c-0.03612,0 -0.07224,-0.00344 -0.10664,-0.01204c-2.18612,-0.5074 -4.26904,-1.35536 -6.18856,-2.52496c-0.25628,-0.15652 -0.35776,-0.47816 -0.23908,-0.75336c0.89268,-2.05196 0.6192,-3.73756 -0.83592,-5.15312c-1.42244,-1.3846 -3.096,-1.61508 -5.11184,-0.72068c-0.2752,0.1204 -0.59684,0.0258 -0.75508,-0.23048c-1.19884,-1.91608 -2.0726,-3.98524 -2.59892,-6.15244c-0.07052,-0.29412 0.086,-0.59512 0.36636,-0.70348c2.14312,-0.8342 3.15964,-2.24288 3.11148,-4.30516c-0.04644,-1.97972 -1.0836,-3.31616 -3.16824,-4.07812c-0.2838,-0.10664 -0.4472,-0.4042 -0.38012,-0.70004c0.50224,-2.193 1.3502,-4.2828 2.52324,-6.21264c0.15996,-0.25972 0.48848,-0.36292 0.76712,-0.23564c2.08464,0.96492 3.80292,0.71036 5.24944,-0.76024c1.42932,-1.4534 1.6512,-3.15792 0.67768,-5.21504c-0.13072,-0.2752 -0.0344,-0.60544 0.22532,-0.76712c1.88168,-1.1782 3.96632,-2.05024 6.19372,-2.5972c0.29928,-0.07224 0.602,0.08944 0.70864,0.37496c0.86,2.31684 2.36672,3.34196 4.61304,3.19576c1.85588,-0.1376 3.14416,-1.21432 3.827,-3.20092c0.09976,-0.2924 0.4042,-0.45924 0.7052,-0.39216c2.18956,0.5074 4.2828,1.37084 6.22124,2.5628c0.25972,0.15996 0.35776,0.48676 0.23048,0.76368c-0.96492,2.09324 -0.72412,3.8098 0.73788,5.25288c1.4534,1.43448 3.14932,1.67012 5.18408,0.71552c0.24252,-0.10664 0.53148,-0.0516 0.70692,0.14792c0.86172,0.97868 2.48712,4.89512 2.63504,6.3468c0.02752,0.26832 -0.129,0.5246 -0.38184,0.62092c-2.14312,0.83076 -3.16308,2.23772 -3.11836,4.3v0c0.03956,1.95736 1.06296,3.29208 3.12352,4.08156c0.28208,0.10836 0.44032,0.40764 0.3698,0.70176c-0.51428,2.1672 -1.37772,4.2398 -2.56624,6.16104c-0.1548,0.25284 -0.47644,0.3526 -0.7482,0.23908c-2.21536,-0.94256 -3.98868,-0.58824 -5.42316,1.07672c-1.17132,1.36568 -1.33816,2.9412 -0.5074,4.81428c0.11868,0.26832 0.02752,0.5848 -0.21844,0.74648l-0.2752,0.1806c-1.75612,1.04404 -3.64984,1.82836 -5.63472,2.3306c-0.65876,0.16684 -0.95632,-0.19608 -1.08876,-0.52804c-0.72412,-1.80084 -2.3478,-2.83112 -4.18132,-2.838c-1.76644,0.02408 -3.29208,1.14896 -3.98008,2.93948c-0.0086,0.02408 -0.0602,0.13072 -0.07052,0.15136c-0.11868,0.20984 -0.36292,0.37668 -0.59856,0.37668zM79.59988,104.87872c1.54284,0.8858 3.1906,1.5566 4.9106,2.00208c0.97352,-2.06228 2.85692,-3.34024 4.94844,-3.36604c0.02752,-0.00172 0.05332,-0.00172 0.07912,-0.00172c2.28588,0 4.18132,1.24184 5.12732,3.3454c1.74752,-0.46612 3.38496,-1.14552 4.90888,-2.03132c-0.77228,-2.0898 -0.46784,-4.01792 0.89096,-5.60032c1.6598,-1.93672 3.83388,-2.48196 6.31928,-1.59444c0.90128,-1.54112 1.58412,-3.18028 2.03648,-4.88308c-2.2102,-1.00276 -3.354,-2.6746 -3.40388,-4.97768v0c-0.04988,-2.40112 1.13348,-4.20884 3.4314,-5.2546c-0.301,-1.3072 -1.33644,-3.82528 -2.01412,-4.89684c-2.29792,0.91332 -4.39288,0.52116 -6.08364,-1.14896c-1.69248,-1.67184 -2.10184,-3.77712 -1.19712,-6.1146c-1.548,-0.89784 -3.19404,-1.57896 -4.90888,-2.02444c-0.8944,2.12936 -2.5026,3.33336 -4.68012,3.49332c-2.60064,0.19608 -4.53564,-1.0062 -5.62612,-3.47268c-1.74236,0.473 -3.38496,1.161 -4.89684,2.05024c0.91676,2.29964 0.53148,4.39116 -1.12488,6.07332c-1.67528,1.70624 -3.78056,2.1242 -6.10944,1.22464c-0.8858,1.54456 -1.55488,3.19232 -1.9952,4.9106c2.2102,0.9718 3.40388,2.68664 3.4572,4.98112c0.05676,2.3908 -1.11112,4.19336 -3.38668,5.246c0.46096,1.7028 1.1524,3.3368 2.06056,4.87448c2.25664,-0.8428 4.30344,-0.44376 5.94948,1.15756c1.6942,1.64604 2.13796,3.71176 1.3072,6.00796zM89.5174,91.71728h-0.00172c-1.10424,-0.00344 -2.13796,-0.43688 -2.91368,-1.21604c-0.77744,-0.78088 -1.20056,-1.81804 -1.19712,-2.91884c0.00516,-1.1008 0.4386,-2.13108 1.2212,-2.90336c0.78776,-0.774 1.806,-1.1954 2.94636,-1.18508c1.11112,0.01032 2.14828,0.45752 2.91884,1.2556c0.77228,0.80324 1.17992,1.85932 1.14724,2.97388c-0.06364,2.2274 -1.87136,3.9818 -4.1194,3.99212c0.00172,0.00172 0,0.00172 -0.00172,0.00172zM89.53288,84.69624c-0.78088,0 -1.51016,0.29928 -2.06228,0.84108c-0.55212,0.54352 -0.85828,1.2728 -0.86172,2.05024c-0.00344,0.77744 0.29756,1.51188 0.84624,2.06228c0.54868,0.55212 1.2814,0.85828 2.06228,0.86344c1.59272,-0.01032 2.87412,-1.25044 2.91884,-2.82424c0.02236,-0.78948 -0.26488,-1.53768 -0.81184,-2.10528c-0.54352,-0.56588 -1.27796,-0.88236 -2.06228,-0.89096c-0.01032,0.00344 -0.01892,0.00344 -0.02924,0.00344z" fill="#472b29"></path><path d="M102.25572,84.52596c-1.77848,-6.91268 -8.88208,-11.09056 -15.86528,-9.331c-6.98492,1.75956 -11.2058,8.79092 -9.42732,15.7036c1.77848,6.91268 8.88208,11.09056 15.86528,9.331c6.98492,-1.75956 11.2058,-8.79092 9.42732,-15.7036zM92.17996,97.70804c-5.57796,1.40524 -11.25052,-1.92984 -12.66952,-7.45104c-1.42072,-5.5212 1.95048,-11.13528 7.52844,-12.54052c5.57796,-1.40524 11.02348,2.0984 12.4442,7.6196c1.419,5.51948 -1.72516,10.96672 -7.30312,12.37196z" fill="#f1c40f"></path><path d="M89.57244,98.51988c-4.75924,0 -9.10568,-3.21468 -10.33204,-8.0324c-0.70348,-2.75888 -0.28896,-5.62612 1.16616,-8.07368c1.4534,-2.44756 3.77368,-4.18132 6.53428,-4.88308c2.75888,-0.70176 5.62612,-0.29068 8.07368,1.16616c2.44756,1.4534 4.18304,3.77368 4.8848,6.53428c1.44996,5.69664 -2.0038,11.50852 -7.70044,12.95848v0c-0.87892,0.22188 -1.75956,0.33024 -2.62644,0.33024zM92.09224,97.77168h0.01032zM89.5862,78.05704c-0.81184,0 -1.62884,0.1032 -2.43552,0.30788c-2.537,0.645 -4.6698,2.23944 -6.00624,4.4892c-1.33644,2.24976 -1.71828,4.88652 -1.07156,7.4218c1.333,5.23568 6.68048,8.4108 11.91444,7.07952v0c5.23568,-1.333 8.4108,-6.67876 7.0778,-11.91444c-0.645,-2.537 -2.24116,-4.6698 -4.49092,-6.00624c-1.53424,-0.9116 -3.24736,-1.37772 -4.988,-1.37772zM77.25896,83.68832c-0.04816,0 -0.09804,-0.0086 -0.14448,-0.0258c-0.2236,-0.08084 -0.33884,-0.3268 -0.25972,-0.5504c1.51704,-4.2226 5.01724,-7.4046 9.35852,-8.50884c0.22876,-0.05676 0.4644,0.08084 0.52288,0.31132c0.05848,0.23048 -0.08084,0.4644 -0.31132,0.52288c-4.06608,1.03544 -7.34096,4.01276 -8.76168,7.96876c-0.06192,0.172 -0.22704,0.28208 -0.4042,0.28208z" fill="#472b29"></path><path d="M89.8442,100.94164c-1.35364,0 -2.73308,-0.1978 -4.09876,-0.60544c-4.66292,-1.3846 -8.127,-4.88308 -9.2622,-9.3568c-0.05848,-0.23048 0.08084,-0.4644 0.31132,-0.52288c0.23048,-0.05504 0.4644,0.08084 0.52288,0.31132c1.06124,4.17788 4.30344,7.4476 8.67396,8.74448c4.39804,1.31236 8.93884,0.32852 12.13976,-2.61784c0.17544,-0.1634 0.44892,-0.14964 0.60888,0.0258c0.15996,0.17544 0.14964,0.44548 -0.0258,0.60716c-2.43036,2.236 -5.5728,3.4142 -8.87004,3.4142z" fill="#472b29"></path><path d="M100.9812,93.91028c-0.26832,0.49364 -0.56932,0.97008 -0.89784,1.42416" fill="#f1c40f"></path><path d="M100.08336,95.76444c-0.08772,0 -0.17544,-0.02752 -0.25112,-0.08256c-0.19264,-0.1376 -0.23564,-0.40592 -0.09632,-0.60028c0.3182,-0.44032 0.6106,-0.903 0.8686,-1.37772c0.11352,-0.21156 0.37668,-0.28552 0.58308,-0.17372c0.20812,0.11352 0.28552,0.37496 0.172,0.58308c-0.27692,0.5074 -0.58824,1.00276 -0.92708,1.4706c-0.086,0.11868 -0.21672,0.1806 -0.34916,0.1806z" fill="#472b29"></path><path d="M102.25572,90.5494c-0.17888,0.7826 -0.43,1.548 -0.7482,2.28416" fill="#f1c40f"></path><path d="M101.50752,93.26356c-0.05676,0 -0.11524,-0.01204 -0.172,-0.03612c-0.21672,-0.0946 -0.3182,-0.34744 -0.2236,-0.56588c0.30788,-0.70864 0.55212,-1.4534 0.72412,-2.20848c0.0516,-0.2322 0.27864,-0.37152 0.51428,-0.32336c0.2322,0.05332 0.37668,0.2838 0.32336,0.516c-0.18404,0.8084 -0.44548,1.60132 -0.774,2.35984c-0.0688,0.16168 -0.22704,0.258 -0.39216,0.258zM102.17488,84.86996c-0.19264,0 -0.36636,-0.129 -0.41624,-0.32336c-1.04576,-4.11252 -4.06608,-7.40288 -8.07884,-8.80124c-0.2236,-0.07912 -0.34228,-0.32336 -0.26316,-0.54696c0.0774,-0.22532 0.32336,-0.33712 0.54696,-0.26488c4.28452,1.49468 7.50952,5.01036 8.62752,9.40324c0.05848,0.23048 -0.08084,0.4644 -0.31132,0.52288c-0.0344,0.00516 -0.07052,0.01032 -0.10492,0.01032z" fill="#472b29"></path><path d="M94.17344,78.40104l3.4658,-0.83936" fill="#f1c40f"></path><path d="M94.17344,78.61604c-0.09804,0 -0.18404,-0.06536 -0.20984,-0.16512c-0.02752,-0.11524 0.043,-0.2322 0.15824,-0.258l3.4658,-0.83764c0.11352,-0.03268 0.2322,0.04128 0.25972,0.15824c0.02752,0.11696 -0.043,0.2322 -0.15824,0.258l-3.4658,0.83764c-0.0172,0.00516 -0.03268,0.00688 -0.04988,0.00688z" fill="#472b29"></path><path d="M97.19548,80.3928l2.60752,-0.43172" fill="#f1c40f"></path><path d="M97.19548,80.6078c-0.1032,0 -0.19436,-0.07396 -0.21328,-0.17888c-0.01892,-0.11696 0.0602,-0.22876 0.17716,-0.24768l2.60752,-0.43172c0.1118,-0.01548 0.22876,0.05848 0.24768,0.17716c0.01892,0.11868 -0.0602,0.22876 -0.17716,0.24768l-2.60752,0.43172c-0.01204,0 -0.02236,0.00172 -0.0344,0.00172z" fill="#472b29"></path><path d="M98.88624,83.0674l2.64364,-0.28552" fill="#f1c40f"></path><path d="M98.88624,83.2824c-0.10836,0 -0.20124,-0.08256 -0.215,-0.19092c-0.01204,-0.11868 0.07224,-0.22532 0.19092,-0.23736l2.64364,-0.2838c0.11352,-0.0258 0.2236,0.07224 0.23736,0.1892c0.01204,0.11868 -0.07224,0.22532 -0.19092,0.23736l-2.64364,0.2838c-0.0086,0.00172 -0.01548,0.00172 -0.02236,0.00172z" fill="#472b29"></path><path d="M84.5724,75.76256l0.26144,2.42004" fill="#f1c40f"></path><path d="M84.83212,78.3976c-0.10836,0 -0.20124,-0.08256 -0.215,-0.19092l-0.25972,-2.42004c-0.01204,-0.11868 0.07224,-0.22532 0.19092,-0.23736c0.1118,-0.02408 0.22188,0.07224 0.23736,0.1892l0.25972,2.42004c0.01204,0.11868 -0.07224,0.22532 -0.19092,0.23736c-0.00688,0.00172 -0.01376,0.00172 -0.02236,0.00172z" fill="#472b29"></path><path d="M82.001,77.11792l0.79808,2.67632" fill="#f1c40f"></path><path d="M82.79908,80.00924c-0.09288,0 -0.17888,-0.0602 -0.2064,-0.15308l-0.79808,-2.67632c-0.0344,-0.11352 0.03096,-0.23392 0.14448,-0.26832c0.11524,-0.02924 0.23392,0.03268 0.2666,0.14448l0.79808,2.67632c0.0344,0.11352 -0.03096,0.23392 -0.14448,0.26832c-0.01892,0.00516 -0.04128,0.0086 -0.0602,0.0086z" fill="#472b29"></path><path d="M79.41928,79.48292l1.57208,2.32888" fill="#f1c40f"></path><path d="M80.99136,82.0268c-0.0688,0 -0.1376,-0.0344 -0.17888,-0.0946l-1.57208,-2.32888c-0.06708,-0.09976 -0.03956,-0.23392 0.05848,-0.29928c0.09804,-0.06708 0.2322,-0.03956 0.29756,0.05676l1.57208,2.32888c0.06708,0.09976 0.03956,0.23392 -0.05848,0.29928c-0.03612,0.0258 -0.0774,0.03784 -0.11868,0.03784z" fill="#472b29"></path><g><path d="M77.54104,92.53772l2.68148,-0.13932" fill="#f1c40f"></path><path d="M77.54104,92.751c-0.11352,0 -0.20984,-0.08944 -0.215,-0.20296c-0.00516,-0.11868 0.086,-0.22016 0.20468,-0.22704l2.68148,-0.13932c0.10836,-0.00344 0.22016,0.086 0.22532,0.20296c0.00516,0.11868 -0.086,0.22016 -0.20468,0.22704l-2.68148,0.13932c-0.00344,0 -0.00688,0 -0.01032,0z" fill="#472b29"></path></g><g><path d="M79.15612,95.44796l2.60408,-0.77572" fill="#f1c40f"></path><path d="M79.15612,95.66296c-0.09288,0 -0.17888,-0.0602 -0.2064,-0.15308c-0.0344,-0.11352 0.03096,-0.23392 0.14448,-0.26832l2.60236,-0.77572c0.11696,-0.0258 0.23392,0.03268 0.2666,0.14448c0.0344,0.11352 -0.03096,0.23392 -0.14448,0.26832l-2.60236,0.77572c-0.01892,0.00516 -0.03956,0.0086 -0.0602,0.0086z" fill="#472b29"></path></g><g><path d="M81.95628,97.88348l2.19644,-1.12832" fill="#f1c40f"></path><path d="M81.95456,98.09848c-0.0774,0 -0.15308,-0.04128 -0.19092,-0.11696c-0.05332,-0.10492 -0.01204,-0.23564 0.09288,-0.28896l2.19644,-1.12832c0.10148,-0.0516 0.23392,-0.01548 0.28896,0.0946c0.05332,0.10492 0.01204,0.23564 -0.09288,0.28896l-2.19644,1.12832c-0.02924,0.01376 -0.06364,0.02236 -0.09804,0.02236z" fill="#472b29"></path></g><g><path d="M85.53904,99.55876l1.62368,-1.55144" fill="#f1c40f"></path><path d="M85.53904,99.77204c-0.05676,0 -0.11352,-0.02236 -0.1548,-0.06708c-0.08256,-0.086 -0.07912,-0.22188 0.00688,-0.30444l1.62368,-1.55144c0.086,-0.07912 0.22188,-0.07912 0.30444,0.0086c0.08256,0.086 0.07912,0.22188 -0.00688,0.30444l-1.62368,1.55144c-0.043,0.03956 -0.09632,0.05848 -0.14964,0.05848z" fill="#472b29"></path></g><g><path d="M89.4056,100.49788l1.26076,-2.3478" fill="#f1c40f"></path><path d="M89.4056,100.71288c-0.0344,0 -0.07052,-0.0086 -0.10148,-0.0258c-0.10492,-0.05676 -0.14276,-0.18576 -0.08772,-0.2924l1.25904,-2.3478c0.05848,-0.10492 0.18748,-0.14104 0.29068,-0.08772c0.10492,0.05676 0.14276,0.18576 0.08772,0.2924l-1.25904,2.3478c-0.03784,0.07396 -0.1118,0.11352 -0.1892,0.11352z" fill="#472b29"></path></g><g><path d="M93.57832,99.82536l0.19952,-2.4682" fill="#f1c40f"></path><path d="M93.57832,100.04036c-0.00516,0 -0.01204,0 -0.0172,0c-0.11696,-0.01032 -0.2064,-0.11352 -0.19608,-0.2322l0.1978,-2.4682c0.01032,-0.11696 0.11868,-0.20124 0.2322,-0.1978c0.11696,0.01032 0.2064,0.11352 0.19608,0.2322l-0.1978,2.4682c-0.01032,0.1118 -0.1032,0.1978 -0.215,0.1978z" fill="#472b29"></path></g><g><path d="M87.6512,74.7254c0.79464,-0.10836 1.5996,-0.14448 2.40112,-0.10492" fill="#f1c40f"></path><path d="M87.64948,75.1554c-0.21156,0 -0.3956,-0.15652 -0.42484,-0.37152c-0.03268,-0.23564 0.13244,-0.45236 0.36636,-0.48504c0.82044,-0.1118 1.65464,-0.1462 2.48196,-0.10836c0.23736,0.01204 0.41968,0.21328 0.40764,0.45064c-0.01032,0.23736 -0.19092,0.40764 -0.45064,0.40936c-0.77228,-0.03956 -1.55488,-0.00516 -2.322,0.1032c-0.01892,0 -0.03784,0.00172 -0.05848,0.00172z" fill="#472b29"></path></g><g><path d="M70.06592,129.44204c3.23876,0 6.04924,0 6.0888,0c3.6292,0 6.57212,-2.87928 6.57212,-6.43108c0,-3.09944 -2.23944,-5.6846 -5.2202,-6.2952c0.0344,-0.27176 0.05848,-0.54524 0.05848,-0.8256c0,-3.67908 -3.04784,-6.66156 -6.80604,-6.66156c-2.2188,0 -4.18476,1.04404 -5.4266,2.65396c-0.3182,-4.09532 -4.05576,-7.25496 -8.428,-6.73036c-3.19748,0.38356 -5.84284,2.80188 -6.43108,5.90132c-0.1892,0.99416 -0.16856,1.95908 0.01892,2.8638c-0.85656,-0.903 -2.07776,-1.47232 -3.43656,-1.47232c-2.48712,0 -4.51844,1.89544 -4.6784,4.28968c-1.13004,-0.24424 -2.35812,-0.22876 -3.65156,0.24596c-2.47336,0.90816 -4.23464,3.18716 -4.33784,5.77232c-0.1462,3.66876 2.85004,6.68908 6.56696,6.68908c0.28208,0 1.27452,0 1.50328,0h13.64648M58.92548,129.44204h0.6192" fill="#fdfcef"></path><path d="M76.15472,130.30204h-6.09052c-0.47472,0 -0.86,-0.38528 -0.86,-0.86c0,-0.47472 0.38528,-0.86 0.86,-0.86h6.09052c3.14932,0 5.7104,-2.49916 5.7104,-5.57108c0,-2.62128 -1.90576,-4.91404 -4.53392,-5.45068c-0.44032,-0.09116 -0.73788,-0.50568 -0.68112,-0.95116c0.03096,-0.23736 0.0516,-0.47472 0.0516,-0.71896c0,-3.1992 -2.66772,-5.80156 -5.94604,-5.80156c-1.87824,0 -3.60856,0.84452 -4.74548,2.32028c-0.21844,0.28208 -0.5848,0.3956 -0.92708,0.29928c-0.34056,-0.1032 -0.58308,-0.40248 -0.6106,-0.7568c-0.13588,-1.7544 -0.9718,-3.34368 -2.3564,-4.47888c-1.42588,-1.17132 -3.23876,-1.6856 -5.11356,-1.46888c-2.83112,0.33884 -5.17032,2.48024 -5.68804,5.20816c-0.16168,0.84968 -0.1548,1.69936 0.0172,2.53012c0.0774,0.37668 -0.1032,0.75852 -0.44376,0.9374c-0.33884,0.17716 -0.7568,0.10836 -1.0234,-0.172c-0.73616,-0.77572 -1.73548,-1.20228 -2.81392,-1.20228c-2.01068,0 -3.6894,1.53252 -3.82012,3.48644c-0.0172,0.25112 -0.14104,0.47988 -0.34056,0.62952c-0.19952,0.14964 -0.45236,0.20812 -0.70004,0.15308c-1.09392,-0.23392 -2.1328,-0.16856 -3.1734,0.215c-2.17064,0.79636 -3.68768,2.80532 -3.7754,4.9966c-0.0602,1.50672 0.48676,2.93776 1.5394,4.0334c1.0922,1.1352 2.5714,1.76128 4.16756,1.76128h15.14976c0.47472,0 0.86,0.38528 0.86,0.86c0,0.47472 -0.38528,0.86 -0.86,0.86h-15.14976c-2.0382,0 -4.01104,-0.8342 -5.4094,-2.28932c-1.37944,-1.4362 -2.09668,-3.31616 -2.01756,-5.29244c0.11524,-2.881 2.08464,-5.51088 4.902,-6.54632c1.05092,-0.387 2.13624,-0.52976 3.2336,-0.41968c0.59168,-2.40112 2.80188,-4.16928 5.3922,-4.16928c0.84796,0 1.68044,0.19436 2.43208,0.55384c0.01548,-0.41452 0.06364,-0.83076 0.14276,-1.24872c0.65532,-3.45548 3.60512,-6.16792 7.1724,-6.59448c2.34264,-0.28896 4.6182,0.37496 6.40872,1.84384c1.28656,1.05436 2.19816,2.42348 2.65912,3.95944c1.36052,-1.11456 3.07192,-1.73204 4.88824,-1.73204c4.22776,0 7.66604,3.37464 7.66604,7.52156c0,0.05848 0,0.11696 -0.00172,0.17716c3.03408,0.9546 5.16516,3.76336 5.16516,6.94364c0.00516,4.02308 -3.3282,7.29452 -7.42696,7.29452zM59.54296,130.30204h-0.6192c-0.47472,0 -0.86,-0.38528 -0.86,-0.86c0,-0.47472 0.38528,-0.86 0.86,-0.86h0.6192c0.47472,0 0.86,0.38528 0.86,0.86c0,0.47472 -0.38356,0.86 -0.86,0.86z" fill="#472b29"></path><path d="M73.21696,120.32088c-0.03096,0 -0.06364,-0.00344 -0.0946,-0.01032c-0.2322,-0.05332 -0.37668,-0.2838 -0.32336,-0.516c0.06536,-0.28552 0.1634,-0.56244 0.29068,-0.82388c1.03888,-2.10528 3.91128,-2.87756 6.40184,-1.73032c0.215,0.09976 0.3096,0.35432 0.20984,0.56932c-0.09976,0.21672 -0.35432,0.30788 -0.57104,0.20984c-2.06744,-0.95632 -4.43244,-0.35776 -5.26836,1.33128c-0.09976,0.19952 -0.17372,0.41108 -0.2236,0.63296c-0.04644,0.20124 -0.2236,0.33712 -0.4214,0.33712z" fill="#472b29"></path><g fill="#472b29"><path d="M64.3452,130.30204h-1.90404c-0.47472,0 -0.86,-0.38528 -0.86,-0.86c0,-0.47472 0.38528,-0.86 0.86,-0.86h1.90404c0.47472,0 0.86,0.38528 0.86,0.86c0,0.47472 -0.38528,0.86 -0.86,0.86z"></path></g></g></g></g></svg>
